<svg width="64" height="64" viewBox="0 0 64 64" fill="none" xmlns="http://www.w3.org/2000/svg">
<path d="M63.9752 44.1419C64.2533 43.4919 60.3857 36.4439 58.7877 33.5804C58.7905 33.534 58.9007 32.0004 58.7877 30.4205C60.3857 27.557 63.9953 20.5862 63.9752 19.859C63.9733 19.7919 64.0319 18.6585 63.9752 18.5262C63.7027 17.8894 55.5101 15.624 52.248 14.7443C51.3184 13.6982 50.3052 12.7256 49.2194 11.8348C48.401 8.9092 45.9395 0.290985 45.265 0.0139567C44.455 -0.318662 33.9093 5.40109 33.2888 5.73876C32.862 5.719 32.4323 5.7089 31.9999 5.7089C31.5679 5.7089 31.1388 5.719 30.7119 5.73876C30.0909 5.40155 19.5457 -0.318662 18.7357 0.0139567C18.0612 0.290985 15.5997 8.9092 14.7813 11.8343C13.6955 12.7251 12.6824 13.6977 11.7523 14.7438C8.49017 15.6236 0.298073 17.8885 0.0250968 18.5257C-0.031656 18.658 0.0265039 19.7914 0.0250968 19.8585C0.00492843 20.8058 3.61459 27.5565 5.21258 30.42C5.04139 31.994 5.20977 33.534 5.21258 33.5799C3.61459 36.4435 -0.253039 43.4914 0.0250968 44.1415C0.0513625 44.2035 -0.031656 45.3419 0.0250968 45.4738C0.297604 46.111 8.49017 48.3759 11.7523 49.2557C12.6819 50.3018 13.6955 51.2744 14.7813 52.1652C15.5997 55.0908 18.0612 63.709 18.7357 63.9856C19.5457 64.3182 30.0909 58.5984 30.7119 58.2612C31.1388 58.281 31.5684 58.2911 31.9999 58.2911C32.4319 58.2911 32.8615 58.281 33.2888 58.2612C33.9093 58.5984 44.455 64.3186 45.265 63.9856C45.9395 63.7085 48.401 55.0903 49.2194 52.1647C50.3052 51.2739 51.3184 50.3013 52.248 49.2552C55.5101 48.3755 63.7027 46.1105 63.9752 45.4733C64.0319 45.3424 63.9489 44.204 63.9752 44.1419ZM52.2316 32.0004C52.2283 42.9424 43.1718 51.8114 31.9999 51.8114C20.829 51.8114 11.772 42.9429 11.7687 32.0004C11.772 21.0585 20.8285 12.1899 31.9999 12.1899C43.1718 12.1899 52.2283 21.0585 52.2316 32.0004Z" fill="#71647E"/>
<mask id="mask0_2514_5860" style="mask-type:luminance" maskUnits="userSpaceOnUse" x="0" y="0" width="64" height="64">
<path d="M63.9752 44.1419C64.2533 43.4919 60.3857 36.4439 58.7877 33.5804C58.7905 33.534 58.9007 32.0004 58.7877 30.4205C60.3857 27.557 63.9953 20.5862 63.9752 19.859C63.9733 19.7919 64.0319 18.6585 63.9752 18.5262C63.7027 17.8894 55.5101 15.624 52.248 14.7443C51.3184 13.6982 50.3052 12.7256 49.2194 11.8348C48.401 8.9092 45.9395 0.290985 45.265 0.0139567C44.455 -0.318662 33.9093 5.40109 33.2888 5.73876C32.862 5.719 32.4323 5.7089 31.9999 5.7089C31.5679 5.7089 31.1388 5.719 30.7119 5.73876C30.0909 5.40155 19.5457 -0.318662 18.7357 0.0139567C18.0612 0.290985 15.5997 8.9092 14.7813 11.8343C13.6955 12.7251 12.6824 13.6977 11.7523 14.7438C8.49017 15.6236 0.298073 17.8885 0.0250968 18.5257C-0.031656 18.658 0.0265039 19.7914 0.0250968 19.8585C0.00492843 20.8058 3.61459 27.5565 5.21258 30.42C5.04139 31.994 5.20977 33.534 5.21258 33.5799C3.61459 36.4435 -0.253039 43.4914 0.0250968 44.1415C0.0513625 44.2035 -0.031656 45.3419 0.0250968 45.4738C0.297604 46.111 8.49017 48.3759 11.7523 49.2557C12.6819 50.3018 13.6955 51.2744 14.7813 52.1652C15.5997 55.0908 18.0612 63.709 18.7357 63.9856C19.5457 64.3182 30.0909 58.5984 30.7119 58.2612C31.1388 58.281 31.5684 58.2911 31.9999 58.2911C32.4319 58.2911 32.8615 58.281 33.2888 58.2612C33.9093 58.5984 44.455 64.3186 45.265 63.9856C45.9395 63.7085 48.401 55.0903 49.2194 52.1647C50.3052 51.2739 51.3184 50.3013 52.248 49.2552C55.5101 48.3755 63.7027 46.1105 63.9752 45.4733C64.0319 45.3424 63.9489 44.204 63.9752 44.1419ZM52.2316 32.0004C52.2283 42.9424 43.1718 51.8114 31.9999 51.8114C20.829 51.8114 11.772 42.9429 11.7687 32.0004C11.772 21.0585 20.8285 12.1899 31.9999 12.1899C43.1718 12.1899 52.2283 21.0585 52.2316 32.0004Z" fill="white"/>
</mask>
<g mask="url(#mask0_2514_5860)">
<path d="M56.7144 29.6216C57.0986 30.9287 68.5172 30.7835 68.5172 30.7835L68.4224 31.7051C68.4224 31.7051 58.5699 30.0581 56.9616 30.5767C55.3533 31.0954 58.0066 43.9651 58.0066 43.9651L56.8608 43.3444C56.8608 43.3444 56.3012 33.6424 55.8505 28.7744C55.8505 28.7744 55.6244 25.5695 55.3317 25.5925C54.7989 25.6343 43.6299 24.9484 43.6299 24.9484L43.6984 24.2781C43.6984 24.2781 52.1212 25.7492 55.2192 24.8198C56.2027 24.5248 55.722 12.3452 55.722 12.3452L56.3547 12.9154C56.3556 12.9158 55.8838 26.7957 56.7144 29.6216Z" fill="#542C4A"/>
<path d="M38.1877 7.04076C39.5048 6.77751 40.2341 -4.02661 40.2341 -4.02661L41.1347 -3.86673C41.1347 -3.86673 38.7595 5.32024 39.1478 6.87996C39.5357 8.43968 52.4177 6.91488 52.4177 6.91488L51.7188 7.9504C51.7188 7.9504 42.1182 7.73815 37.2881 7.79236C37.2881 7.79236 34.1133 7.76112 34.1137 8.03953C34.1142 8.54627 32.5852 19.0509 32.5852 19.0509L31.9304 18.9346C31.9304 18.9346 34.0232 11.0859 33.3441 8.08639C33.1288 7.13402 21.093 6.65852 21.093 6.65852L21.7027 6.10401C21.7027 6.10401 35.3403 7.61044 38.1877 7.04076Z" fill="#542C4A"/>
<path d="M6.87758 25.4423C6.63744 24.2892 -3.22253 23.6506 -3.22253 23.6506L-3.07667 22.8618C-3.07667 22.8618 5.30726 24.9416 6.73077 24.6016C8.15428 24.2616 6.76267 12.9829 6.76267 12.9829L7.70776 13.5949C7.70776 13.5949 7.51406 22.0013 7.56377 26.2302C7.56377 26.2302 7.53516 29.0102 7.78938 29.0097C8.25184 29.0092 17.8388 30.348 17.8388 30.348L17.7328 30.9213C17.7328 30.9213 10.5698 29.0887 7.83253 29.6832C6.96341 29.872 6.52956 40.4101 6.52956 40.4101L6.02348 39.8763C6.02348 39.8763 7.39727 27.9356 6.87758 25.4423Z" fill="#542C4A"/>
<path d="M50.1279 44.6257C49.9473 43.7583 42.5309 43.2782 42.5309 43.2782L42.6407 42.6851C42.6407 42.6851 48.9468 44.2494 50.0176 43.9935C51.0884 43.7381 50.0415 35.254 50.0415 35.254L50.7526 35.7144C50.7526 35.7144 50.6072 42.0373 50.6442 45.2183C50.6442 45.2183 50.6227 47.3091 50.814 47.3091C51.1621 47.3087 58.3729 48.3157 58.3729 48.3157L58.2932 48.7471C58.2932 48.7471 52.9054 47.3689 50.8464 47.8159C50.1926 47.9578 49.8661 55.8846 49.8661 55.8846L49.4857 55.4831C49.4857 55.4831 50.519 46.501 50.1279 44.6257Z" fill="#542C4A"/>
<path d="M33.3534 55.2074C34.7352 54.8436 34.7905 43.3191 34.7905 43.3191L35.7581 43.4312C35.7581 43.4312 33.8468 53.3427 34.3628 54.975C34.8787 56.6073 48.4623 54.1641 48.4623 54.1641L47.7888 55.309C47.7888 55.309 37.5752 55.6967 32.4472 56.0633C32.4472 56.0633 29.0726 56.2329 29.0913 56.5287C29.1256 57.0672 28.2006 68.3247 28.2006 68.3247L27.4971 68.2429C27.4971 68.2429 29.1978 59.7708 28.2766 56.6275C27.9839 55.6296 15.1663 55.8933 15.1663 55.8933L15.7774 55.2653C15.7774 55.2653 30.3657 55.9944 33.3534 55.2074Z" fill="#542C4A"/>
<path d="M12.6396 48.3878C12.8202 49.2552 22.6009 49.2107 22.6009 49.2107L23.0244 49.5938C23.0244 49.5938 13.7625 48.9548 12.6917 49.2107C11.6209 49.4661 12.7118 57.4673 12.7118 57.4673L12.0008 57.007C12.0008 57.007 12.1466 50.684 12.1091 47.503C12.1091 47.503 12.1307 45.4122 11.9393 45.4122C11.5913 45.4127 4.38043 44.4056 4.38043 44.4056L4.46017 43.9742C4.46017 43.9742 9.84793 45.3525 11.907 44.9054C12.5608 44.7635 12.8873 36.8372 12.8873 36.8372L13.2676 37.2387C13.2676 37.2387 12.2484 46.5125 12.6396 48.3878Z" fill="#542C4A"/>
<path d="M17.2418 11.9367C16.9012 11.1167 9.52103 11.9799 9.52103 11.9799L9.51727 11.3772C9.51727 11.3772 16.0096 11.7792 17.0143 11.3349C18.0189 10.8906 15.3975 2.74011 15.3975 2.74011L16.1827 3.06446C16.1827 3.06446 17.2263 9.30611 17.8599 12.426C17.8599 12.426 18.2314 14.4851 18.419 14.4507C18.7609 14.3877 26.038 14.079 26.038 14.079L26.0403 14.5173C26.0403 14.5173 20.4856 14.1327 18.5457 14.9432C17.9298 15.2004 19.0968 23.0505 19.0968 23.0505L18.6474 22.7243C18.6474 22.7243 17.9777 13.7101 17.2418 11.9367Z" fill="#542C4A"/>
<path opacity="0.5" d="M34.9749 8.48743C34.4932 9.11684 33.0049 21.868 33.6381 23.051C34.2713 24.234 53.057 25.1951 54.3576 24.2684C55.6582 23.3418 56.1516 10.5548 54.3576 9.52112C52.5636 8.48743 35.6081 7.66048 34.9749 8.48743Z" fill="#51385B"/>
<path opacity="0.8" d="M32.0002 8.15027C27.6176 7.59484 18.8636 6.62731 18.3008 8.41904C17.7379 10.2108 17.351 13.3807 18.7229 13.7598C20.0948 14.1388 31.8999 14.4144 32.329 13.5875C32.7587 12.7601 33.958 8.39836 32.0002 8.15027Z" fill="url(#paint0_linear_2514_5860)"/>
<path opacity="0.5" d="M38.1703 6.41868C38.0052 7.16753 26.2851 6.55191 22.7683 5.70888C21.8537 5.48974 22.1351 -1.02251 23.296 -1.47044C24.4568 -1.91837 39.4499 -2.09065 39.4635 -1.22925C39.4775 -0.367839 38.3758 5.48698 38.1703 6.41868Z" fill="#51385B"/>
<path opacity="0.8" d="M41.1661 -1.26369C39.7614 1.92283 39.0888 6.7945 39.6886 6.89557C40.2885 6.99664 48.9051 7.53232 50.664 6.47658C52.4229 5.42084 51.0509 -0.574561 49.679 -0.884668C48.3071 -1.19477 41.5235 -2.07456 41.1661 -1.26369Z" fill="url(#paint1_linear_2514_5860)"/>
<path opacity="0.5" d="M16.3661 12.1898C13.9069 11.1988 8.69742 12.2436 8.38083 13.2428C8.06423 14.242 7.71245 28.1279 8.0994 28.4725C8.48636 28.8171 17.2 30.402 17.8384 29.4717C18.4767 28.5409 18.3712 12.9975 16.3661 12.1898Z" fill="#51385B"/>
<path opacity="0.8" d="M8.13458 30.2639C7.46996 32.2224 6.30536 42.4959 6.48125 43.1505C6.65713 43.8052 11.5332 45.4591 11.7686 44.3565C12.0041 43.2539 13.1649 31.332 12.6725 30.574C12.18 29.816 8.48823 29.2224 8.13458 30.2639Z" fill="url(#paint2_linear_2514_5860)"/>
<path opacity="0.5" d="M6.20075 25.7845C5.54786 24.9143 0.254841 23.9096 -0.519061 24.675C-1.29296 25.4399 -1.36332 39.3603 -0.167287 39.946C1.02874 40.5318 5.88556 40.2286 5.97233 38.6574C6.0591 37.0861 7.11489 27.0033 6.20075 25.7845Z" fill="#51385B"/>
<path opacity="0.5" d="M12.793 47.6643C13.4571 48.8198 19.5794 49.3247 19.7782 48.6291C19.9771 47.9335 20.9475 39.0847 20.2224 38.4645C19.4968 37.8443 13.9346 36.1936 13.4815 37.8443C13.0284 39.4954 12.4562 47.0786 12.793 47.6643Z" fill="#51385B"/>
<path opacity="0.5" d="M11.7686 45.8381C11.0763 44.8292 -2.70006 43.5295 -3.4036 44.2531C-4.10715 44.9767 -4.66999 52.937 -2.70006 53.6257C-0.730125 54.3143 11.8146 54.901 11.7686 53.6257C11.7227 52.3503 12.0965 46.3163 11.7686 45.8381Z" fill="#51385B"/>
<path opacity="0.8" d="M13.3056 49.3866C12.2466 49.2649 12.4947 53.4461 12.7766 54.3208C12.9876 54.975 32.0983 55.1133 32.746 54.3208C33.3938 53.5283 34.2043 49.9779 32.7235 49.9779C28.854 49.9775 15.9754 49.6931 13.3056 49.3866Z" fill="url(#paint3_linear_2514_5860)"/>
<path opacity="0.5" d="M12.793 55.8897C12.3765 56.838 13.1298 67.9325 14.7479 68.3248C16.3661 68.7171 27.2185 68.4415 27.2448 67.7524C27.2711 67.0632 28.3897 57.1205 27.6547 56.7512C26.9193 56.3818 13.0088 55.3986 12.793 55.8897Z" fill="#51385B"/>
<path opacity="0.8" d="M29.65 57.0469C29.4413 57.8716 27.6575 67.7867 29.0646 68.0279C30.4717 68.2691 46.5356 68.8549 46.7879 65.5126C47.0402 62.1704 48.043 56.0174 46.2223 55.8892C44.4024 55.7615 29.8629 56.2057 29.65 57.0469Z" fill="url(#paint4_linear_2514_5860)"/>
<path opacity="0.5" d="M34.8693 54.3782C35.3641 55.0457 49.3272 54.3152 49.3976 53.6261C49.4679 52.9365 50.2198 45.7085 49.5448 45.0842C48.8699 44.4603 37.0147 42.8854 36.3468 43.9655C35.6784 45.0456 34.2009 53.4768 34.8693 54.3782Z" fill="#51385B"/>
<path opacity="0.8" d="M50.8867 46.7363C50.8666 47.1172 56.4767 47.3455 56.7431 46.3334C57.0095 45.3213 55.6591 26.5288 55.0259 25.9674C54.3928 25.4056 50.7334 25.5388 50.4519 26.3657C50.1701 27.1927 51.4613 36.0227 50.8867 46.7363Z" fill="url(#paint5_linear_2514_5860)"/>
<path opacity="0.5" d="M50.9806 48.25C50.1485 49.637 49.9252 56.2439 50.9806 56.7263C52.0359 57.2087 58.5179 56.7607 58.3725 55.0035C58.2271 53.2462 58.1567 49.6085 57.2421 49.1188C56.3275 48.629 51.5551 47.2926 50.9806 48.25Z" fill="#51385B"/>
<path opacity="0.5" d="M57.0498 31.0564C56.8524 32.2242 57.7792 42.6718 58.1914 43.3187C58.6037 43.9655 67.2672 45.4646 67.83 42.3953C68.3929 39.3254 68.9909 32.572 67.4431 32.1585C65.8958 31.7455 57.1896 30.2336 57.0498 31.0564Z" fill="#51385B"/>
<path opacity="0.5" d="M57.0498 28.8166C57.5625 29.5494 66.0712 30.2982 66.7395 29.6436C67.4079 28.9889 67.0913 16.2056 66.0712 15.6888C65.051 15.1719 57.2806 14.3817 56.7773 15.2408C56.274 16.0999 56.471 27.9897 57.0498 28.8166Z" fill="#51385B"/>
<path d="M54.0841 30.9144C54.0841 30.9144 53.0241 32.0326 53.8665 35.0418C53.8665 35.0418 56.957 33.3764 54.0841 30.9144Z" fill="#542C4A"/>
<path d="M10.6997 37.7252C10.6997 37.7252 9.39674 40.5134 11.9258 41.0225C11.9258 41.0225 11.9159 38.628 10.6997 37.7252Z" fill="#542C4A"/>
<path d="M27.2448 6.73025C27.2448 6.73025 28.2677 9.44081 31.4806 6.98293C31.4806 6.98293 28.1739 6.35077 27.2448 6.73025Z" fill="#542C4A"/>
</g>
<path d="M27.3667 57.9171C27.4624 57.9337 27.5581 57.9497 27.6542 57.9649C26.847 58.5318 26.0009 59.0115 25.1749 59.413C25.1707 59.4153 25.1669 59.4171 25.1622 59.4194C24.6909 59.6482 24.2265 59.8522 23.7795 60.0337C23.7664 60.0387 23.7528 60.0438 23.7387 60.0497C21.5957 60.9121 19.8692 61.241 19.7787 61.2575C19.7773 61.2575 19.7764 61.2585 19.7749 61.2585C19.7749 61.2585 19.7735 61.2562 19.7712 61.252C18.6619 59.1451 17.9668 57.0364 17.5424 55.3903C17.54 55.3839 17.5386 55.3775 17.5372 55.3706C17.532 55.3494 17.5269 55.3283 17.5217 55.3067C17.3951 54.8119 17.2928 54.3603 17.2122 53.9652C17.2825 54.0112 17.3543 54.0566 17.4256 54.1017C17.5419 54.1756 17.6591 54.2491 17.7769 54.3208C17.8749 54.3805 17.9725 54.4398 18.0705 54.4986C20.7899 56.1162 23.826 57.2758 27.0665 57.8643L27.3667 57.9171Z" fill="#51385B"/>
<path d="M27.2447 57.8964C25.8151 58.8139 23.0661 60.3387 19.9977 60.7862C19.9977 60.7862 18.7159 58.8171 17.7769 54.3203C17.8749 54.38 17.9724 54.4393 18.0705 54.4981C20.7899 56.1157 23.826 57.2753 27.0665 57.8638L27.2447 57.8964Z" fill="url(#paint6_linear_2514_5860)"/>
<path opacity="0.5" d="M27.3667 57.9172C26.9211 58.3003 26.1435 58.9095 25.1749 59.413C25.1707 59.4153 25.1669 59.4172 25.1622 59.4194C24.7687 59.6234 24.3011 59.8302 23.7795 60.0337C23.7664 60.0387 23.7528 60.0438 23.7387 60.0498C22.6004 60.4903 21.2121 60.9144 19.7787 61.2576C19.7773 61.2576 19.7764 61.2585 19.775 61.2585C19.775 61.2585 19.7735 61.2562 19.7712 61.2521C19.6919 61.1133 18.4176 58.8447 17.5424 55.3904C17.54 55.3839 17.5386 55.3775 17.5372 55.3706C17.532 55.3495 17.5269 55.3283 17.5217 55.3067C17.4396 54.9415 17.4195 54.5032 17.4256 54.1017C17.5419 54.1757 17.6591 54.2492 17.7769 54.3208C17.8749 54.3806 17.9725 54.4398 18.0705 54.4986C18.5803 55.7951 19.4157 57.6126 20.4794 58.8268C20.4794 58.8268 23.5399 59.3372 27.0665 57.8643L27.3667 57.9172Z" fill="#542C4A"/>
<path d="M46.7879 53.9647C46.7072 54.3594 46.605 54.811 46.4784 55.3062C46.4732 55.3278 46.468 55.3489 46.4629 55.3701C46.4615 55.3765 46.4601 55.3834 46.4577 55.3898C46.0323 57.0359 45.3381 59.1447 44.2289 61.2515C44.2265 61.2557 44.2251 61.258 44.2251 61.258C44.2237 61.258 44.2228 61.2571 44.2214 61.2571C44.1308 61.2405 42.4015 60.9107 40.2562 60.0469C40.2445 60.0428 40.2323 60.0378 40.2205 60.0332C39.7684 59.8503 39.2989 59.6436 38.8224 59.4111C37.9978 59.0096 37.1526 58.5309 36.3468 57.964C36.443 57.9493 36.5386 57.9336 36.6334 57.9166L36.934 57.8638C40.1746 57.2753 43.2106 56.1162 45.9301 54.4976C46.0276 54.4398 46.1256 54.381 46.2227 54.3208C46.3405 54.2491 46.4582 54.1756 46.5745 54.1016C46.6467 54.0561 46.7176 54.0107 46.7879 53.9647Z" fill="#51385B"/>
<path d="M46.2227 54.3203C45.2847 58.8166 44.0028 60.7862 44.0028 60.7862C40.9344 60.3391 38.185 58.8139 36.7558 57.8964C36.7558 57.8964 36.7558 57.8964 36.7549 57.8964L36.9341 57.8638C40.1746 57.2753 43.2106 56.1162 45.9301 54.4976C46.0276 54.4393 46.1257 54.3805 46.2227 54.3203Z" fill="url(#paint7_linear_2514_5860)"/>
<path opacity="0.5" d="M46.4784 55.3063C46.4732 55.3279 46.4681 55.349 46.4629 55.3701C46.4615 55.3766 46.4601 55.3835 46.4577 55.3899C45.5825 58.8443 44.3082 61.1129 44.2289 61.2516C44.2266 61.2557 44.2252 61.258 44.2252 61.258C44.2237 61.258 44.2228 61.2571 44.2214 61.2571C42.7862 60.913 41.395 60.489 40.2562 60.047C40.2445 60.0429 40.2323 60.0378 40.2206 60.0332C39.6995 59.8302 39.2318 59.623 38.8379 59.419C38.8327 59.4162 38.8275 59.4139 38.8224 59.4112C37.8552 58.9081 37.0781 58.2998 36.6334 57.9167L36.9341 57.8639C40.4607 59.3368 43.5211 58.8263 43.5211 58.8263C44.5854 57.6121 45.4212 55.7937 45.9301 54.4977C46.0276 54.4398 46.1257 54.381 46.2228 54.3208C46.3405 54.2492 46.4582 54.1757 46.5745 54.1017C46.5806 54.5028 46.5605 54.941 46.4784 55.3063Z" fill="#542C4A"/>
<path d="M27.3667 6.1131C27.4624 6.09656 27.5581 6.08048 27.6542 6.06532C26.847 5.4984 26.0009 5.01877 25.1749 4.61724C25.1707 4.61494 25.1669 4.6131 25.1622 4.61081C24.6909 4.38202 24.2265 4.17803 23.7795 3.99702C23.7664 3.99197 23.7528 3.98692 23.7387 3.98094C21.5957 3.11862 19.8692 2.78967 19.7787 2.77314C19.7773 2.77314 19.7764 2.77222 19.7749 2.77222C19.7749 2.77222 19.7735 2.77451 19.7712 2.77865C18.6619 4.88554 17.9668 6.99426 17.5424 8.64035C17.54 8.64679 17.5386 8.65322 17.5372 8.66011C17.532 8.68124 17.5269 8.70238 17.5217 8.72397C17.3951 9.21876 17.2928 9.67037 17.2122 10.0655C17.2825 10.0195 17.3543 9.97404 17.4256 9.92902C17.5419 9.85506 17.6591 9.78155 17.7769 9.70988C17.8749 9.65016 17.9725 9.59089 18.0705 9.53209C20.7899 7.91448 23.826 6.75491 27.0665 6.16639L27.3667 6.1131Z" fill="#51385B"/>
<path d="M27.2447 6.13339C25.8151 5.21593 23.0661 3.69113 19.9977 3.24365C19.9977 3.24365 18.7159 5.21272 17.7769 9.7095C17.8749 9.64977 17.9724 9.59051 18.0705 9.5317C20.7899 7.91409 23.826 6.75452 27.0665 6.16601L27.2447 6.13339Z" fill="url(#paint8_linear_2514_5860)"/>
<path opacity="0.5" d="M27.3667 6.1131C26.9211 5.72994 26.1435 5.12076 25.1749 4.61724C25.1707 4.61494 25.1669 4.6131 25.1622 4.61081C24.7687 4.40682 24.3011 4.20009 23.7795 3.99702C23.7664 3.99197 23.7528 3.98692 23.7387 3.98094C22.6004 3.54036 21.2121 3.11632 19.7787 2.77314C19.7773 2.77314 19.7764 2.77222 19.775 2.77222C19.775 2.77222 19.7735 2.77451 19.7712 2.77865C19.6919 2.91739 18.4176 5.18599 17.5424 8.64035C17.54 8.64679 17.5386 8.65322 17.5372 8.66011C17.532 8.68124 17.5269 8.70238 17.5217 8.72397C17.4396 9.08921 17.4195 9.52749 17.4256 9.92902C17.5419 9.85506 17.6591 9.78155 17.7769 9.70988C17.8749 9.65016 17.9725 9.59089 18.0705 9.53209C18.5803 8.23561 19.4157 6.41815 20.4794 5.20391C20.4794 5.20391 23.5399 4.6935 27.0665 6.16639L27.3667 6.1131Z" fill="#542C4A"/>
<path opacity="0.5" d="M24.5445 2.49897C21.8683 1.53924 19.0344 0.664969 19.0344 0.664969C18.1657 1.97661 16.2976 6.67645 16.2103 6.89605C17.1915 3.62821 18.3135 0.188093 18.7356 0.0144332C19.1282 -0.146822 21.8115 1.11566 24.5413 2.49667C24.5427 2.49759 24.5436 2.49805 24.5445 2.49897Z" fill="url(#paint9_linear_2514_5860)"/>
<path d="M36.6409 6.1131C36.5452 6.09656 36.4495 6.08048 36.3533 6.06532C37.1601 5.4984 38.0067 5.01877 38.8326 4.61724C38.8369 4.61494 38.8406 4.6131 38.8453 4.61081C39.3167 4.38202 39.781 4.17803 40.228 3.99702C40.2411 3.99197 40.2547 3.98692 40.2688 3.98094C42.4118 3.11862 44.1383 2.78967 44.2288 2.77314C44.2303 2.77314 44.2312 2.77222 44.2326 2.77222C44.2326 2.77222 44.234 2.77451 44.2363 2.77865C45.3456 4.88554 46.0407 6.99426 46.4652 8.64035C46.4675 8.64679 46.4689 8.65322 46.4703 8.66011C46.4755 8.68124 46.4807 8.70238 46.4858 8.72397C46.6125 9.21876 46.7147 9.67037 46.7954 10.0655C46.725 10.0195 46.6533 9.97404 46.582 9.92902C46.4657 9.85506 46.3484 9.78155 46.2307 9.70988C46.1326 9.65016 46.0351 9.59089 45.9371 9.53209C43.2176 7.91448 40.1816 6.75491 36.941 6.16639L36.6409 6.1131Z" fill="#51385B"/>
<path d="M36.7632 6.13339C38.1929 5.21593 40.9419 3.69113 44.0103 3.24365C44.0103 3.24365 45.2921 5.21272 46.2311 9.7095C46.1331 9.64977 46.0355 9.59051 45.9375 9.5317C43.2181 7.91409 40.182 6.75452 36.9415 6.16601L36.7632 6.13339Z" fill="url(#paint10_linear_2514_5860)"/>
<path opacity="0.5" d="M36.6409 6.1131C37.086 5.72994 37.8641 5.12076 38.8327 4.61724C38.8369 4.61494 38.8406 4.6131 38.8453 4.61081C39.2388 4.40682 39.7065 4.20009 40.228 3.99702C40.2412 3.99197 40.2547 3.98692 40.2688 3.98094C41.4072 3.54036 42.7955 3.11632 44.2289 2.77314C44.2303 2.77314 44.2312 2.77222 44.2326 2.77222C44.2326 2.77222 44.234 2.77451 44.2364 2.77865C44.3156 2.91739 45.59 5.18599 46.4652 8.64035C46.4675 8.64679 46.469 8.65322 46.4704 8.66011C46.4755 8.68124 46.4807 8.70238 46.4858 8.72397C46.5679 9.08921 46.5881 9.52749 46.582 9.92902C46.4657 9.85506 46.3484 9.78155 46.2307 9.70988C46.1326 9.65016 46.0351 9.59089 45.9371 9.53209C45.4272 8.23561 44.5924 6.41815 43.5281 5.20391C43.5281 5.20391 40.4677 4.6935 36.9415 6.16639L36.6409 6.1131Z" fill="#542C4A"/>
<path opacity="0.5" d="M39.4635 2.49897C42.1398 1.53924 44.9737 0.664969 44.9737 0.664969C45.8423 1.97661 47.7105 6.67645 47.7977 6.89605C46.8165 3.62821 45.6946 0.188093 45.2724 0.0144332C44.8799 -0.146822 42.1965 1.11566 39.4668 2.49667C39.4649 2.49759 39.4644 2.49805 39.4635 2.49897Z" fill="url(#paint11_linear_2514_5860)"/>
<path d="M53.8665 16.7877C53.8106 16.7096 53.7548 16.6325 53.6971 16.5548C54.6774 16.7115 55.6225 16.9573 56.4968 17.2444C56.5015 17.2458 56.5057 17.2471 56.5104 17.2485C57.009 17.4125 57.485 17.5894 57.932 17.77C57.9452 17.7755 57.9583 17.7815 57.9724 17.787C60.1112 18.6585 61.5708 19.62 61.6472 19.671C61.6482 19.672 61.6491 19.672 61.6505 19.6729C61.6505 19.6729 61.65 19.6756 61.6486 19.6802C60.9151 21.9396 59.8874 23.9133 59.001 25.3724C58.9977 25.3784 58.9944 25.3844 58.9906 25.3899C58.9794 25.4082 58.9676 25.4271 58.9555 25.4459C58.6881 25.8842 58.4353 26.2742 58.2078 26.6101C58.1909 26.5292 58.1731 26.447 58.1553 26.3657C58.1262 26.2329 58.0962 26.0997 58.0648 25.9674C58.0385 25.8576 58.0122 25.7478 57.985 25.6384C57.2257 22.6118 55.9119 19.6913 54.0419 17.0331L53.8665 16.7877Z" fill="#51385B"/>
<path d="M53.9387 16.8866C55.6122 17.2256 58.6581 18.0475 61.1534 19.8531C61.1534 19.8531 60.6416 22.1341 58.0648 25.9674C58.0385 25.8576 58.0122 25.7478 57.985 25.6385C57.2257 22.6119 55.9119 19.6913 54.0419 17.0332L53.9387 16.8866Z" fill="url(#paint12_linear_2514_5860)"/>
<path opacity="0.5" d="M53.8665 16.7877C54.4579 16.8245 55.448 16.9315 56.4968 17.2444C56.5015 17.2458 56.5057 17.2471 56.5104 17.2485C56.9363 17.3762 57.4161 17.5531 57.932 17.77C57.9452 17.7755 57.9583 17.7814 57.9724 17.787C59.0957 18.2625 60.3846 18.9226 61.6472 19.671C61.6482 19.6719 61.6491 19.6719 61.6505 19.6729C61.6505 19.6729 61.65 19.6756 61.6486 19.6802C61.605 19.8332 60.8714 22.3214 59.001 25.3724C58.9977 25.3784 58.9944 25.3843 58.9906 25.3899C58.9794 25.4082 58.9676 25.4271 58.9554 25.4459C58.7505 25.7615 58.4484 26.0854 58.1548 26.3657C58.1257 26.2329 58.0957 26.0997 58.0643 25.9673C58.038 25.8575 58.0118 25.7477 57.9845 25.6384C58.5582 24.3677 59.2772 22.5033 59.3992 20.9073C59.3992 20.9073 57.6 18.4292 54.0414 17.0331L53.8665 16.7877Z" fill="#542C4A"/>
<path opacity="0.5" d="M58.3724 16.4689C60.7795 17.5347 63.2344 18.7563 63.2344 18.7563C62.9408 20.1764 61.0647 24.4742 60.977 24.675C62.4915 21.8886 64.0275 18.8987 63.8629 18.5156C63.7095 18.1595 61.0975 17.2899 58.3762 16.4693C58.3743 16.4689 58.3734 16.4689 58.3724 16.4689Z" fill="url(#paint13_linear_2514_5860)"/>
<path d="M53.8665 47.1902C53.8106 47.2683 53.7548 47.3455 53.6971 47.4231C54.6774 47.2664 55.6225 47.0206 56.4968 46.7335C56.5015 46.7321 56.5057 46.7312 56.5104 46.7294C57.009 46.5654 57.485 46.3885 57.932 46.2079C57.9452 46.2024 57.9583 46.1965 57.9724 46.1909C60.1112 45.3194 61.5708 44.3579 61.6472 44.3073C61.6482 44.3064 61.6491 44.3064 61.6505 44.3055C61.6505 44.3055 61.65 44.3027 61.6486 44.2981C60.9151 42.0387 59.8874 40.0651 59.001 38.606C58.9977 38.6 58.9944 38.594 58.9906 38.5885C58.9794 38.5701 58.9676 38.5517 58.9555 38.5324C58.6881 38.0942 58.4353 37.7041 58.2078 37.3683C58.1909 37.4491 58.1731 37.5314 58.1553 37.6127C58.1262 37.7455 58.0962 37.8787 58.0648 38.011C58.0385 38.1208 58.0122 38.2306 57.985 38.3399C57.2257 41.3666 55.9119 44.2871 54.0419 46.9453L53.8665 47.1902Z" fill="#51385B"/>
<path d="M53.9387 47.0913C55.6122 46.7523 58.6581 45.9304 61.1534 44.1249C61.1534 44.1249 60.6416 41.8439 58.0648 38.0105C58.0385 38.1203 58.0122 38.2301 57.985 38.3394C57.2257 41.3661 55.9119 44.2866 54.0419 46.9448L53.9387 47.0913Z" fill="url(#paint14_linear_2514_5860)"/>
<path opacity="0.5" d="M53.8665 47.1901C54.4579 47.1534 55.448 47.0463 56.4968 46.733C56.5015 46.7316 56.5057 46.7307 56.5104 46.7289C56.9363 46.6012 57.4161 46.4243 57.932 46.2074C57.9452 46.2019 57.9583 46.1959 57.9724 46.1904C59.0957 45.7149 60.3846 45.0547 61.6472 44.3068C61.6482 44.3059 61.6491 44.3059 61.6505 44.305C61.6505 44.305 61.65 44.3022 61.6486 44.2976C61.605 44.1446 60.8714 41.6564 59.001 38.6054C58.9977 38.5995 58.9944 38.5935 58.9906 38.588C58.9794 38.5696 58.9676 38.5512 58.9554 38.5319C58.7505 38.2168 58.4484 37.8924 58.1548 37.6122C58.1257 37.745 58.0957 37.8782 58.0643 38.0105C58.038 38.1203 58.0118 38.2301 57.9845 38.3394C58.5582 39.6102 59.2772 41.4745 59.3992 43.0701C59.3992 43.0701 57.6 45.5482 54.0414 46.9448L53.8665 47.1901Z" fill="#542C4A"/>
<path opacity="0.5" d="M58.3724 47.509C60.7795 46.4431 63.2344 45.2215 63.2344 45.2215C62.9408 43.8015 61.0647 39.5041 60.977 39.3029C62.4915 42.0892 64.0275 45.0791 63.8629 45.4623C63.7095 45.8183 61.0975 46.688 58.3762 47.5085C58.3743 47.509 58.3734 47.509 58.3724 47.509Z" fill="url(#paint15_linear_2514_5860)"/>
<path d="M10.0084 16.7877C10.0642 16.7096 10.1205 16.6325 10.1777 16.5548C9.19741 16.7115 8.25278 16.9573 7.37804 17.2444C7.37335 17.2458 7.36912 17.2471 7.36443 17.2485C6.86585 17.4125 6.38979 17.5894 5.9428 17.77C5.92967 17.7755 5.91653 17.7815 5.90246 17.787C3.76321 18.6585 2.30405 19.62 2.22807 19.671C2.22713 19.672 2.2262 19.672 2.22479 19.6729C2.22479 19.6729 2.22526 19.6756 2.22667 19.6802C2.96023 21.9396 3.98835 23.9133 4.87435 25.3724C4.87763 25.3784 4.88091 25.3844 4.88466 25.3899C4.89639 25.4082 4.90765 25.4271 4.91985 25.4459C5.18673 25.8842 5.44 26.2742 5.66748 26.6101C5.68437 26.5292 5.70219 26.447 5.72001 26.3657C5.74909 26.2329 5.77911 26.0997 5.81053 25.9674C5.8368 25.8576 5.86306 25.7478 5.89027 25.6384C6.64963 22.6118 7.96339 19.6913 9.83342 17.0331L10.0084 16.7877Z" fill="#51385B"/>
<path d="M9.93608 16.8866C8.26257 17.2256 5.21668 18.0475 2.72144 19.8531C2.72144 19.8531 3.23315 22.1341 5.81001 25.9674C5.83628 25.8576 5.86254 25.7478 5.88974 25.6385C6.64911 22.6119 7.96286 19.6913 9.83289 17.0332L9.93608 16.8866Z" fill="url(#paint16_linear_2514_5860)"/>
<path opacity="0.5" d="M10.0084 16.7877C9.41692 16.8245 8.42679 16.9315 7.37804 17.2444C7.37335 17.2458 7.36912 17.2471 7.36443 17.2485C6.93902 17.3762 6.45874 17.5531 5.9428 17.77C5.92967 17.7755 5.91653 17.7814 5.90246 17.787C4.77913 18.2625 3.49023 18.9226 2.22807 19.671C2.22713 19.6719 2.2262 19.6719 2.22479 19.6729C2.22479 19.6729 2.22526 19.6756 2.22667 19.6802C2.27029 19.8332 3.00385 22.3214 4.87435 25.3724C4.87763 25.3784 4.88091 25.3843 4.88466 25.3899C4.89639 25.4082 4.90765 25.4271 4.91985 25.4459C5.12481 25.7615 5.42687 26.0854 5.72001 26.3657C5.74909 26.2329 5.77911 26.0997 5.81053 25.9673C5.8368 25.8575 5.86306 25.7477 5.89027 25.6384C5.31664 24.3677 4.59762 22.5033 4.47567 20.9073C4.47567 20.9073 6.27488 18.4292 9.83342 17.0331L10.0084 16.7877Z" fill="#542C4A"/>
<path opacity="0.5" d="M5.50254 16.4689C3.09547 17.5347 0.64056 18.7563 0.64056 18.7563C0.934173 20.1764 2.8103 24.4742 2.89847 24.675C1.3835 21.8886 -0.152105 18.8987 0.0125246 18.5156C0.165898 18.1595 2.77793 17.2899 5.49925 16.4693C5.50066 16.4689 5.5016 16.4689 5.50254 16.4689Z" fill="url(#paint17_linear_2514_5860)"/>
<path d="M10.0084 47.1902C10.0642 47.2683 10.1205 47.3455 10.1777 47.4231C9.19741 47.2664 8.25278 47.0206 7.37804 46.7335C7.37335 46.7321 7.36912 46.7312 7.36443 46.7294C6.86585 46.5654 6.38979 46.3885 5.9428 46.2079C5.92967 46.2024 5.91653 46.1965 5.90246 46.1909C3.76321 45.3194 2.30405 44.3579 2.22807 44.3073C2.22713 44.3064 2.2262 44.3064 2.22479 44.3055C2.22479 44.3055 2.22526 44.3027 2.22667 44.2981C2.96023 42.0387 3.98835 40.0651 4.87435 38.606C4.87763 38.6 4.88091 38.594 4.88466 38.5885C4.89639 38.5701 4.90765 38.5517 4.91985 38.5324C5.18673 38.0942 5.44 37.7041 5.66748 37.3683C5.68437 37.4491 5.70219 37.5314 5.72001 37.6127C5.74909 37.7455 5.77911 37.8787 5.81053 38.011C5.8368 38.1208 5.86306 38.2306 5.89027 38.3399C6.64963 41.3666 7.96339 44.2871 9.83342 46.9453L10.0084 47.1902Z" fill="#51385B"/>
<path d="M9.93608 47.0913C8.26257 46.7523 5.21668 45.9304 2.72144 44.1249C2.72144 44.1249 3.23315 41.8439 5.81001 38.0105C5.83628 38.1203 5.86254 38.2301 5.88974 38.3394C6.64911 41.3661 7.96286 44.2866 9.83289 46.9448L9.93608 47.0913Z" fill="url(#paint18_linear_2514_5860)"/>
<path opacity="0.5" d="M10.0084 47.1901C9.41692 47.1534 8.42679 47.0463 7.37804 46.733C7.37335 46.7316 7.36912 46.7307 7.36443 46.7289C6.93902 46.6012 6.45874 46.4243 5.9428 46.2074C5.92967 46.2019 5.91653 46.1959 5.90246 46.1904C4.77913 45.7149 3.49023 45.0547 2.22807 44.3068C2.22713 44.3059 2.2262 44.3059 2.22479 44.305C2.22479 44.305 2.22526 44.3022 2.22667 44.2976C2.27029 44.1446 3.00385 41.6564 4.87435 38.6054C4.87763 38.5995 4.88091 38.5935 4.88466 38.588C4.89639 38.5696 4.90765 38.5512 4.91985 38.5319C5.12481 38.2168 5.42687 37.8924 5.72001 37.6122C5.74909 37.745 5.77911 37.8782 5.81053 38.0105C5.8368 38.1203 5.86306 38.2301 5.89027 38.3394C5.31664 39.6102 4.59762 41.4745 4.47567 43.0701C4.47567 43.0701 6.27488 45.5482 9.83342 46.9448L10.0084 47.1901Z" fill="#542C4A"/>
<path opacity="0.5" d="M5.50254 47.509C3.09547 46.4431 0.64056 45.2215 0.64056 45.2215C0.934173 43.8015 2.8103 39.5041 2.89847 39.3029C1.3835 42.0892 -0.152105 45.0791 0.0125246 45.4623C0.165898 45.8183 2.77793 46.688 5.49925 47.5085C5.50066 47.509 5.5016 47.509 5.50254 47.509Z" fill="url(#paint19_linear_2514_5860)"/>
<path opacity="0.7" d="M56.957 41.6744C53.0223 51.4021 43.3312 58.2805 31.9998 58.2805C21.2839 58.2805 12.0355 52.1285 7.7345 43.2328C17.6264 52.162 37.738 60.4995 56.957 41.6744Z" fill="#451F47"/>
<path opacity="0.7" d="M55.366 48.3984C54.155 48.7388 53.0518 49.0393 52.2479 49.2561C51.3188 50.3022 50.3052 51.2748 49.2194 52.1661C48.9853 53.0032 48.6162 54.3065 48.1931 55.7473C45.0544 57.9428 41.3997 59.6877 37.782 60.6442C35.5124 59.4676 33.5462 58.4013 33.2887 58.2612C32.8619 58.2814 32.4323 58.2915 32.0003 58.2915C31.5683 58.2915 31.1392 58.2814 30.7123 58.2616C30.4506 58.4031 28.43 59.4998 26.1172 60.6966C22.4916 59.7979 18.9007 58.1381 15.867 55.9489C15.4196 54.4283 15.0265 53.0413 14.7812 52.1652C13.6959 51.2744 12.6818 50.3013 11.7527 49.2552C11.0806 49.0738 10.1988 48.8344 9.22039 48.5615C8.35549 46.8713 7.82877 45.0805 7.7345 43.2318C14.86 54.7738 38.7698 68.5159 56.957 41.6735C57.3008 43.8796 56.6746 46.1794 55.366 48.3984Z" fill="#451F47"/>
<path opacity="0.5" d="M31.9998 5.70886C19.8552 5.70886 9.59515 13.6108 6.28613 24.4526C10.6772 14.9409 20.6497 10.3637 32.0008 10.3637C44.3799 10.3637 54.6817 16.1951 58.3725 27.1076C56.0344 14.9257 45.1158 5.70886 31.9998 5.70886Z" fill="url(#paint20_linear_2514_5860)"/>
<path opacity="0.7" d="M32.0002 10.3636C19.8031 10.3636 9.91589 20.0482 9.91589 31.9949C9.91589 43.9411 19.8031 53.6261 32.0002 53.6261C44.1964 53.6261 54.0836 43.9416 54.0836 31.9949C54.0841 20.0486 44.1969 10.3636 32.0002 10.3636ZM31.9998 51.8114C20.8265 51.8114 11.7686 42.9396 11.7686 31.9949C11.7686 21.0502 20.8265 12.1779 31.9998 12.1779C43.1735 12.1779 52.2314 21.0502 52.2314 31.9949C52.2314 42.9396 43.1735 51.8114 31.9998 51.8114Z" fill="#51385B"/>
<path opacity="0.8" d="M14.2249 44.8329C14.2249 44.8329 20.1422 51.8114 31.9998 51.8114C43.8574 51.8114 49.7756 44.8329 49.7756 44.8329C49.7756 44.8329 44.0028 53.9404 32.0003 53.9404C19.9973 53.9404 14.2249 44.8329 14.2249 44.8329Z" fill="url(#paint21_linear_2514_5860)"/>
<path d="M14.2249 44.8329C14.2249 44.8329 20.1427 53.6261 32.0007 53.6261C43.8583 53.6261 49.7756 44.8329 49.7756 44.8329C49.7756 44.8329 44.0028 53.9404 32.0003 53.9404C19.9973 53.9404 14.2249 44.8329 14.2249 44.8329Z" fill="url(#paint22_linear_2514_5860)"/>
<path opacity="0.7" d="M53.2563 26.1093C52.7366 25.8198 51.9378 25.343 50.7653 24.5734L50.7643 24.5725C47.7653 17.305 40.494 12.1774 31.9998 12.1774C23.2463 12.1774 15.791 17.6234 12.9726 25.2451C11.9018 26.339 10.9623 27.2169 10.3718 27.6033C12.4431 17.7626 21.3397 10.3636 32.0007 10.3636C42.1135 10.3636 50.6391 17.0224 53.2563 26.1093Z" fill="#451F47"/>
<path d="M30.437 53.8876C29.9272 52.9605 35.4481 52.0284 36.2234 52.7056C36.9987 53.3827 35.616 53.6533 35.616 53.6533L30.437 53.8876Z" fill="white"/>
<path d="M39.7205 10.7505C39.5644 9.70856 45.0788 10.6789 45.5712 11.5743C46.0637 12.4701 44.6702 12.2615 44.6702 12.2615L39.7205 10.7505Z" fill="white"/>
<path opacity="0.5" d="M63.9751 19.859C63.9952 20.5862 60.3856 27.557 58.7871 30.4205L58.6783 28.7156C58.6783 28.7156 63.2227 21.7954 63.8625 18.5156L63.999 18.7894V18.7904C64.006 19.1689 63.9741 19.8089 63.9751 19.859Z" fill="#542C4A"/>
<path opacity="0.5" d="M63.9751 45.4746C63.9633 45.5031 63.9357 45.5344 63.8935 45.5688C63.8822 45.5339 63.8728 45.4985 63.8625 45.4622C62.7734 41.5691 58.6783 35.2737 58.6783 35.2737L58.7871 33.5803C60.3856 36.4439 64.2537 43.4923 63.9751 44.1419C63.9483 44.2039 64.0323 45.3428 63.9751 45.4746Z" fill="url(#paint23_linear_2514_5860)"/>
<path opacity="0.5" d="M5.21295 33.5808V35.5407C5.21295 35.5407 2.04088 39.9892 0.0174836 45.448C-0.0237911 45.2316 0.0503189 44.2012 0.0249912 44.1424C-0.253613 43.4927 3.61449 36.4439 5.21295 33.5808Z" fill="url(#paint24_linear_2514_5860)"/>
<path opacity="0.5" d="M5.21295 28.3549V30.4205C3.61449 27.5569 0.00529126 20.8062 0.0249906 19.8589C0.0263977 19.7928 -0.0289493 18.7127 0.020768 18.5381C2.33778 24.8702 5.21295 28.3549 5.21295 28.3549Z" fill="#542C4A"/>
<path d="M29.5181 58.1693L30.7118 58.2621C30.0908 58.5989 19.5456 64.3191 18.7356 63.986C18.5391 63.9056 18.1924 63.12 17.7787 61.9747C17.8247 62.0675 18.5648 63.5569 18.9598 63.5569C19.3678 63.5574 29.5181 58.1693 29.5181 58.1693Z" fill="url(#paint25_radial_2514_5860)"/>
<path d="M46.2189 61.982C45.8062 63.1237 45.46 63.9056 45.2645 63.986C44.4544 64.3191 33.9092 58.5989 33.2882 58.2617L34.7835 58.1404C34.7835 58.1404 41.8907 62.5035 44.7842 63.3759C45.5163 63.5964 46.1631 62.112 46.2189 61.982Z" fill="url(#paint26_radial_2514_5860)"/>
<path d="M47.1257 31.4916C47.1257 29.339 46.6019 27.3006 45.6675 25.4817C45.4836 25.1238 45.2815 24.7761 45.0669 24.4363C42.4802 20.3405 37.7131 17.5913 32.2569 17.5913C27.1053 17.5913 22.5675 20.0417 19.9001 23.7628L19.8999 23.7631L19.8004 23.9049L19.7928 23.9236C19.6774 24.6184 19.6204 25.3209 19.6204 26.0246C19.6204 30.5557 21.9846 35.1424 26.3796 38.1438C29.3463 40.1699 32.7675 41.1516 36.0977 41.1516C39.3111 41.1516 42.4385 40.235 44.9931 38.463L45.216 38.3045L45.2153 38.3005C46.4288 36.2879 47.1257 33.9667 47.1257 31.4916Z" fill="#95859B"/>
<path d="M43.3682 23.3048C40.944 20.3195 37.5627 18.6233 34.5968 18.6227C33.2507 18.6226 31.9896 18.9731 30.9471 19.7129C29.3424 20.8516 28.5497 22.7024 28.55 24.7947C28.5501 27.0582 29.4756 29.6077 31.3066 31.8631C33.7308 34.8483 37.112 36.5446 40.078 36.5452C41.4241 36.5452 42.6852 36.1947 43.7278 35.4549C45.3324 34.3164 46.1251 32.4654 46.1248 30.3731C46.1246 28.1096 45.1991 25.5602 43.3682 23.3048Z" fill="#898AA5"/>
<path d="M45.2036 28.166C44.9799 27.3422 44.672 26.5388 44.2881 25.7686C43.6194 24.427 42.72 23.1857 41.6329 22.1094C41.4287 21.9075 41.2389 21.6917 41.0262 21.524C40.8139 21.3564 40.5744 21.2362 40.2787 21.2365C40.1752 21.2365 40.0654 21.251 39.9482 21.2825C39.3181 21.4519 38.7696 21.9623 38.7685 22.6137L38.7687 22.6341V22.6336C38.7857 23.4592 39.5386 24.0538 40.1389 24.6135C41.5351 25.9103 42.4913 27.6164 42.8374 29.4276C42.9531 30.0293 43.0138 30.6832 43.4121 31.194C43.6657 31.5169 44.1067 31.7291 44.5216 31.7298C44.7696 31.7301 45.0107 31.6517 45.1873 31.4707C45.4129 31.2389 45.4711 30.9173 45.4953 30.6208C45.5065 30.4811 45.5117 30.3413 45.5117 30.2017C45.5116 29.5148 45.3838 28.8304 45.2036 28.166Z" fill="white"/>
<path d="M37.9306 19.9559C37.3114 19.9559 36.8093 20.4252 36.8093 21.0041C36.8093 21.5831 37.3114 22.0523 37.9306 22.0524C38.5498 22.0523 39.0518 21.583 39.0518 21.0041C39.0518 20.4253 38.5498 19.9559 37.9306 19.9559Z" fill="white"/>
<path d="M45.2159 38.3046L45.205 38.2458L45.1412 38.2442C42.5684 40.0991 39.3781 41.0575 36.0978 41.0575C32.7886 41.0575 29.3884 40.0821 26.439 38.0679C22.0698 35.0841 19.7211 30.5253 19.7211 26.0247C19.7211 25.3258 19.7777 24.6282 19.8923 23.9381L19.8605 23.887L19.8003 23.9052C19.4177 24.4534 18.7819 25.6155 18.7786 25.6217C18.6369 25.9052 18.5064 26.1942 18.3851 26.4874L18.3852 26.4871L18.3593 26.5487L18.3591 26.5492C18.2379 26.8463 18.1268 27.1482 18.0272 27.4547L18.0269 27.4557L18.013 27.5014C17.9244 27.7778 17.8467 28.0583 17.7764 28.3413C17.7628 28.396 17.7486 28.4507 17.7355 28.5065C17.665 28.8068 17.6029 29.1103 17.5535 29.4179L17.5534 29.419L17.5442 29.486C17.501 29.7646 17.4689 30.0462 17.4437 30.3295C17.4368 30.4067 17.4303 30.4839 17.4248 30.5618C17.403 30.8691 17.3881 31.1786 17.3881 31.4917V31.4918C17.3881 39.1688 24.045 45.392 32.257 45.392C32.5701 45.392 32.8798 45.38 33.1874 45.3623C33.2762 45.3571 33.3638 45.35 33.4511 45.3435C33.685 45.3262 33.9173 45.3037 34.148 45.2763C34.2277 45.2668 34.3083 45.2585 34.3892 45.2476C34.6904 45.2071 34.9895 45.1601 35.2851 45.1029L35.2862 45.1026L35.3681 45.085L35.3685 45.0849L35.369 45.0848C35.638 45.0312 35.9039 44.97 36.1671 44.9029C36.2447 44.8832 36.3214 44.8624 36.3979 44.8416C36.6331 44.7779 36.8659 44.7092 37.0962 44.6351C37.1503 44.6176 37.2064 44.6012 37.2625 44.5825C37.5497 44.4863 37.8334 44.3831 38.1124 44.2711L38.1133 44.2708L38.187 44.2396C38.4397 44.1366 38.6883 44.0268 38.9333 43.9113C38.9878 43.8856 39.042 43.8596 39.096 43.8334C39.3445 43.7127 39.5898 43.5868 39.8301 43.4534L39.8303 43.4532C39.8305 43.4532 39.8307 43.453 39.8307 43.453L39.8771 43.4281L39.8779 43.4276C40.1486 43.2761 40.4138 43.1168 40.6729 42.9499L40.6736 42.9495L40.7086 42.9262V42.9261L40.7091 42.9258C40.9497 42.7699 41.1846 42.6071 41.4145 42.4387L41.5004 42.3756L41.5006 42.3753C41.9917 42.0101 42.4584 41.6173 42.8964 41.1977L42.8967 41.1974L42.9012 41.1929L42.901 41.1932C43.1195 40.9837 43.3303 40.7674 43.5343 40.5454L43.5342 40.5456L43.5602 40.5175L43.5605 40.5172C43.9757 40.0629 44.3606 39.5835 44.7114 39.0814L44.7117 39.081L44.7118 39.0809L44.7121 39.0804C44.8886 38.8273 45.0568 38.5686 45.2159 38.3046Z" fill="#4B465C"/>
<path d="M25.0731 32.4264C25.073 32.3679 25.0532 32.3086 25.0107 32.2621C24.9685 32.2155 24.9018 32.1845 24.8217 32.1849C24.7416 32.1845 24.6749 32.2155 24.6327 32.2622C24.5902 32.3086 24.5703 32.368 24.5703 32.4267C24.5703 32.4852 24.5901 32.5445 24.6326 32.591C24.6748 32.6376 24.7415 32.6686 24.8217 32.6682C24.9018 32.6685 24.9684 32.6376 25.0106 32.5909C25.0532 32.5444 25.073 32.485 25.0731 32.4264Z" fill="#ECD0B2"/>
<path d="M25.6061 35.1688L25.6057 35.1632L25.5949 35.088L25.5935 35.0816C25.577 35.0263 25.5463 34.9769 25.5028 34.9363L25.4979 34.9322L25.4367 34.8879L25.4312 34.8844C25.3773 34.855 25.3175 34.8401 25.2552 34.8397V34.8395L25.2435 34.8392C25.2007 34.8392 25.1597 34.8499 25.1215 34.8673L25.1211 34.8661C25.1198 34.8664 25.1189 34.8678 25.1176 34.8682C25.1162 34.8688 25.1145 34.8685 25.1132 34.8692L25.1139 34.8704C25.073 34.884 25.0359 34.9055 25.0056 34.9354L25.005 34.9347C25.0045 34.9351 25.0045 34.9358 25.004 34.9363C25.0035 34.9368 25.0028 34.9368 25.0024 34.9373L25.0029 34.9378C24.971 34.9661 24.948 35.0009 24.9334 35.0391L24.9321 35.0385C24.9314 35.0397 24.9317 35.0413 24.9311 35.0425C24.9307 35.0438 24.9292 35.0445 24.9287 35.0457L24.93 35.0462C24.9113 35.0819 24.8999 35.1203 24.9 35.1604L24.9003 35.1723L24.9007 35.1757L24.9114 35.251L24.9129 35.2575C24.9294 35.3127 24.9602 35.3621 25.0036 35.4027L25.0085 35.4068L25.0697 35.4511L25.0753 35.4545C25.1292 35.4839 25.189 35.499 25.2514 35.4994V35.4995H25.253H25.2532L25.2629 35.4997C25.3057 35.4997 25.3468 35.4891 25.3851 35.4716L25.3855 35.4728C25.3869 35.4724 25.3876 35.4712 25.3889 35.4707C25.3903 35.47 25.3919 35.4703 25.3932 35.4697L25.3926 35.4685C25.4336 35.4548 25.4708 35.4333 25.501 35.4035L25.5016 35.404C25.502 35.4036 25.5022 35.4029 25.5026 35.4025C25.503 35.402 25.5037 35.402 25.5042 35.4015L25.5034 35.401C25.5353 35.3727 25.5584 35.338 25.573 35.2997L25.5743 35.3004C25.575 35.2991 25.5747 35.2976 25.5754 35.2963C25.5758 35.295 25.5772 35.2943 25.5776 35.2931L25.5763 35.2927C25.595 35.2569 25.6064 35.2185 25.6063 35.1784L25.6061 35.1688Z" fill="#ECD0B2"/>
<path d="M27.583 36.0532C27.7836 36.0536 27.9407 35.9788 28.0433 35.8665C28.1461 35.7543 28.196 35.6073 28.1961 35.4612C28.1961 35.3151 28.1462 35.1683 28.0434 35.0562C27.9409 34.944 27.7838 34.8693 27.583 34.8698C27.3824 34.8693 27.2253 34.9442 27.1227 35.0565C27.0199 35.1687 26.9699 35.3156 26.9698 35.4618C26.9699 35.6079 27.0197 35.7547 27.1225 35.8667C27.2251 35.9789 27.3823 36.0536 27.583 36.0532Z" fill="#ECD0B2"/>
<path d="M27.8649 32.2675L27.8652 32.2715L27.8812 32.382L27.8826 32.3885C27.9058 32.4662 27.9487 32.5351 28.0097 32.5923L28.0146 32.5963L28.1046 32.6613L28.1101 32.6648C28.1861 32.7061 28.2699 32.7273 28.3578 32.7277V32.7278H28.3594C28.3595 32.7278 28.3595 32.7279 28.3596 32.7279L28.3738 32.7281C28.4344 32.7282 28.4923 32.7136 28.5461 32.6886L28.5466 32.6898C28.5487 32.6891 28.5504 32.6878 28.5526 32.6872C28.5531 32.6869 28.5538 32.687 28.5543 32.6867L28.5542 32.6864C28.6128 32.6674 28.6649 32.6362 28.708 32.5934L28.7083 32.5936C28.7087 32.5932 28.709 32.5927 28.7095 32.5923C28.7099 32.5919 28.7106 32.5917 28.711 32.5912L28.7107 32.591C28.7565 32.5507 28.7898 32.5019 28.8102 32.4471L28.8105 32.4473C28.8108 32.4467 28.8107 32.4461 28.8109 32.4457C28.8117 32.4436 28.8131 32.442 28.8139 32.4399L28.8126 32.4395C28.8394 32.3891 28.8549 32.335 28.8548 32.2783L28.8547 32.2639L28.8542 32.2589C28.8489 32.2222 28.8436 32.1854 28.8383 32.1485L28.8369 32.1421C28.8137 32.0643 28.7708 31.9954 28.7098 31.9382L28.7049 31.9341L28.6149 31.8691L28.6094 31.8656C28.5335 31.8243 28.4496 31.8032 28.3617 31.8027V31.8026L28.3457 31.8022C28.285 31.8022 28.227 31.8168 28.1734 31.8418L28.173 31.8406C28.1708 31.8413 28.1689 31.8427 28.1667 31.8434C28.1663 31.8437 28.1656 31.8435 28.165 31.8438L28.1652 31.8441C28.1067 31.8632 28.0546 31.8944 28.0114 31.9371L28.0111 31.9369C28.0107 31.9373 28.0103 31.9378 28.0099 31.9383C28.0095 31.9387 28.0089 31.9389 28.0085 31.9394L28.0088 31.9396C27.9631 31.98 27.9298 32.0287 27.9093 32.0834L27.909 32.0833C27.9087 32.0838 27.9088 32.0844 27.9086 32.0849C27.9078 32.0869 27.9064 32.0886 27.9057 32.0906L27.907 32.091C27.8801 32.1412 27.8646 32.1954 27.8647 32.2521L27.8649 32.2675Z" fill="#ECD0B2"/>
<path d="M29.6541 35.6245C29.7799 35.6248 29.8808 35.5772 29.9459 35.5057C30.0112 35.4343 30.0424 35.3418 30.0425 35.25C30.0424 35.1582 30.0112 35.0658 29.9459 34.9945C29.8809 34.923 29.7799 34.8755 29.6541 34.8759C29.5284 34.8755 29.4274 34.9231 29.3624 34.9946C29.297 35.066 29.2657 35.1585 29.2657 35.2503C29.2657 35.342 29.297 35.4345 29.3623 35.5058C29.4274 35.5773 29.5283 35.6248 29.6541 35.6245Z" fill="#ECD0B2"/>
<path d="M29.9992 38.3871C30.2985 38.3875 30.5296 38.2769 30.6814 38.1108C30.8336 37.9449 30.9082 37.7263 30.9083 37.5085C30.9082 37.2908 30.8336 37.0725 30.6816 36.9067C30.5298 36.7408 30.2987 36.6303 29.9992 36.6307C29.7 36.6304 29.4689 36.741 29.3171 36.907C29.1649 37.0729 29.0902 37.2915 29.0901 37.5093C29.0901 37.7269 29.1647 37.9453 29.3168 38.1111C29.4687 38.277 29.6998 38.3876 29.9992 38.3871Z" fill="#ECD0B2"/>
<path d="M32.847 36.3162C32.9332 36.3166 33.0044 36.2833 33.0497 36.2334C33.0953 36.1835 33.1166 36.1197 33.1167 36.0568C33.1166 35.9938 33.0953 35.9301 33.0498 35.8803C33.0045 35.8303 32.9333 35.7972 32.8471 35.7976C32.7609 35.7972 32.6897 35.8305 32.6444 35.8804C32.5988 35.9302 32.5774 35.994 32.5774 36.057C32.5774 36.12 32.5987 36.1837 32.6443 36.2335C32.6895 36.2834 32.7608 36.3166 32.847 36.3162Z" fill="#ECD0B2"/>
<path d="M32.9215 38.0739C32.9215 38.1789 32.9573 38.2846 33.0318 38.3658C33.106 38.4472 33.2207 38.5014 33.3647 38.501C33.5087 38.5014 33.6233 38.4472 33.6975 38.3656C33.772 38.2843 33.8078 38.1785 33.8078 38.0734C33.8078 37.9685 33.772 37.8628 33.6975 37.7815C33.6233 37.7002 33.5086 37.646 33.3646 37.6464C33.2207 37.646 33.106 37.7002 33.0318 37.7817C32.9574 37.8631 32.9215 37.9689 32.9215 38.0739Z" fill="#ECD0B2"/>
<path d="M33.3867 39.7223C33.3335 39.7804 33.3084 39.8552 33.3083 39.9293C33.3083 40.0034 33.3334 40.0781 33.3866 40.1362C33.4395 40.1944 33.5222 40.2331 33.6236 40.2327C33.725 40.2331 33.8076 40.1943 33.8605 40.136C33.9137 40.0779 33.9388 40.0031 33.9389 39.929C33.9388 39.8549 33.9137 39.7801 33.8605 39.7221C33.8077 39.6639 33.725 39.6252 33.6236 39.6256C33.5222 39.6252 33.4396 39.664 33.3867 39.7223Z" fill="#ECD0B2"/>
<path d="M36.3851 37.8843C36.4834 37.8847 36.5638 37.8471 36.6151 37.7905C36.6667 37.734 36.6912 37.6614 36.6912 37.5895C36.6912 37.5177 36.6668 37.4451 36.6151 37.3886C36.5638 37.3321 36.4834 37.2945 36.3851 37.2949C36.2867 37.2945 36.2063 37.3322 36.1549 37.3888C36.1033 37.4452 36.0789 37.5178 36.0788 37.5897C36.0789 37.6616 36.1032 37.7341 36.1549 37.7905C36.2063 37.8471 36.2867 37.8848 36.3851 37.8843Z" fill="#ECD0B2"/>
<path d="M38.1973 38.2335C38.3048 38.2339 38.392 38.1929 38.4479 38.1313C38.5041 38.0699 38.5308 37.9906 38.5309 37.9121C38.5308 37.8336 38.5041 37.7544 38.448 37.6931C38.392 37.6316 38.3048 37.5906 38.1973 37.5911C38.0898 37.5906 38.0026 37.6316 37.9467 37.6932C37.8904 37.7547 37.8637 37.8339 37.8636 37.9124C37.8636 37.9909 37.8903 38.0701 37.9466 38.1315C38.0025 38.193 38.0897 38.234 38.1973 38.2335Z" fill="#ECD0B2"/>
<path d="M38.2835 39.4554C38.1791 39.455 38.0941 39.4949 38.0397 39.5548C37.985 39.6146 37.9591 39.6917 37.959 39.768C37.9591 39.8442 37.9849 39.9212 38.0397 39.9809C38.094 40.0408 38.179 40.0806 38.2835 40.0801C38.3879 40.0805 38.4729 40.0407 38.5272 39.9808C38.5819 39.921 38.6078 39.8439 38.6079 39.7676C38.6078 39.6914 38.5819 39.6144 38.5272 39.5547C38.4729 39.4948 38.388 39.455 38.2835 39.4554Z" fill="#ECD0B2"/>
<path d="M36.0399 39.7277C36.2174 39.728 36.3571 39.6616 36.4481 39.5619C36.5392 39.4623 36.5835 39.3322 36.5835 39.2027C36.5834 39.0734 36.5393 38.9435 36.4481 38.844C36.3572 38.7444 36.2174 38.678 36.0399 38.6785C35.8624 38.6781 35.7227 38.7445 35.6318 38.8442C35.5405 38.9438 35.4963 39.0739 35.4962 39.2033C35.4963 39.3325 35.5404 39.4625 35.6317 39.562C35.7225 39.6617 35.8623 39.728 36.0399 39.7277Z" fill="#ECD0B2"/>
<path d="M42.0805 39.049C42.191 39.0494 42.2805 39.0073 42.3379 38.9441C42.3956 38.881 42.4231 38.7995 42.4232 38.7188C42.4232 38.6381 42.3957 38.5567 42.338 38.4937C42.2805 38.4305 42.191 38.3885 42.0805 38.3889C41.97 38.3885 41.8804 38.4306 41.8229 38.4938C41.7652 38.5569 41.7378 38.6384 41.7377 38.7191C41.7378 38.7998 41.7652 38.8812 41.8229 38.9442C41.8803 39.0075 41.9698 39.0495 42.0805 39.049Z" fill="#ECD0B2"/>
<path d="M43.6339 37.4278C43.714 37.4283 43.7806 37.3972 43.8228 37.3506C43.8653 37.304 43.8851 37.2447 43.8852 37.1861C43.8852 37.1275 43.8654 37.0681 43.8229 37.0217C43.7807 36.9751 43.714 36.9441 43.6339 36.9446C43.5538 36.9441 43.4872 36.9752 43.4449 37.0218C43.4024 37.0684 43.3826 37.1278 43.3825 37.1863C43.3826 37.2449 43.4024 37.3042 43.4449 37.3507C43.487 37.3973 43.5537 37.4283 43.6339 37.4278Z" fill="#ECD0B2"/>
<path d="M23.0315 31.4129C22.9783 31.471 22.9531 31.5459 22.9531 31.62C22.9531 31.694 22.9782 31.7688 23.0314 31.8269C23.0842 31.8851 23.1669 31.9237 23.2685 31.9234C23.3698 31.9237 23.4525 31.885 23.5053 31.8267C23.5585 31.7686 23.5836 31.6937 23.5837 31.6197C23.5837 31.5456 23.5585 31.4708 23.5054 31.4128C23.4525 31.3546 23.3699 31.3158 23.2685 31.3163C23.1669 31.3158 23.0843 31.3547 23.0315 31.4129Z" fill="#ECD0B2"/>
<path d="M25.1669 30.0358C25.3962 30.0362 25.5747 29.951 25.6916 29.8231C25.8087 29.6953 25.8658 29.5276 25.8659 29.3606C25.8659 29.1938 25.8088 29.0263 25.6917 28.8986C25.5749 28.7708 25.3963 28.6857 25.1669 28.6862C24.9377 28.6857 24.7591 28.7709 24.6423 28.8989C24.5251 29.0266 24.4679 29.1943 24.4678 29.3613C24.4678 29.5282 24.525 29.6957 24.6421 29.8234C24.7589 29.9512 24.9374 30.0362 25.1669 30.0358Z" fill="#ECD0B2"/>
<path d="M22.3173 27.9917L22.3177 27.9959C22.3263 28.0562 22.335 28.1165 22.3437 28.1768L22.3451 28.1832C22.3818 28.306 22.449 28.4138 22.5451 28.5042L22.55 28.5082C22.5992 28.5437 22.6483 28.5791 22.6974 28.6146L22.7029 28.6181C22.8232 28.6834 22.9547 28.7166 23.0939 28.7173V28.7174H23.0955H23.0956L23.1188 28.7178C23.2151 28.7179 23.3068 28.6966 23.3918 28.6562L23.3919 28.6564C23.3932 28.656 23.3941 28.6553 23.3953 28.6549C23.3967 28.6542 23.3983 28.6541 23.3996 28.6533L23.3995 28.6531C23.4931 28.6233 23.5758 28.5738 23.6447 28.5052L23.6449 28.5054C23.6453 28.5051 23.6455 28.5046 23.646 28.5042C23.6465 28.5037 23.647 28.5035 23.6475 28.503L23.6472 28.5027C23.7205 28.4384 23.7735 28.3611 23.8054 28.2735L23.8057 28.2737C23.8064 28.2723 23.8066 28.2709 23.8074 28.2695C23.8077 28.2684 23.8086 28.2675 23.8089 28.2664L23.8087 28.2663C23.8519 28.1869 23.8747 28.1011 23.8746 28.011L23.8741 27.9878L23.8737 27.9832C23.865 27.9229 23.8564 27.8626 23.8477 27.8023L23.8463 27.7958C23.8096 27.6731 23.7423 27.5653 23.6462 27.475L23.6413 27.4709C23.5922 27.4354 23.543 27.3999 23.494 27.3644L23.4885 27.361C23.3682 27.2957 23.2367 27.2624 23.0976 27.2619V27.2617L23.0727 27.2612C22.9763 27.2612 22.8846 27.2824 22.7996 27.3229L22.7995 27.3226C22.7983 27.323 22.7972 27.3237 22.7959 27.3241C22.7945 27.3248 22.793 27.3249 22.7916 27.3256L22.7918 27.3259C22.6981 27.3557 22.6154 27.4053 22.5466 27.4738L22.5464 27.4736C22.546 27.4739 22.5457 27.4745 22.5452 27.4748C22.5448 27.4753 22.5442 27.4755 22.5437 27.476L22.544 27.4762C22.4707 27.5405 22.4176 27.6178 22.3859 27.7054L22.3856 27.7052C22.3847 27.7065 22.3846 27.708 22.3839 27.7092C22.3835 27.7105 22.3826 27.7114 22.3822 27.7126L22.3825 27.7126C22.3392 27.7921 22.3164 27.8778 22.3165 27.968L22.3173 27.9917Z" fill="#ECD0B2"/>
<path d="M21.3699 29.9262C21.2898 29.9257 21.2231 29.9568 21.1809 30.0034C21.1384 30.0498 21.1185 30.1092 21.1185 30.1679C21.1186 30.2264 21.1384 30.2858 21.1809 30.3322C21.2231 30.3788 21.2898 30.4098 21.37 30.4094C21.4501 30.4098 21.5168 30.3788 21.5589 30.3322C21.6014 30.2856 21.6212 30.2263 21.6213 30.1677C21.6212 30.1091 21.6014 30.0498 21.559 30.0033C21.5166 29.9567 21.45 29.9257 21.3699 29.9262Z" fill="#ECD0B2"/>
<path d="M20.941 25.5607L20.9816 25.6531L20.9827 25.6527C20.9978 25.6999 21.0233 25.7427 21.0606 25.7777L21.0608 25.7779C21.0996 25.814 21.1468 25.8398 21.1995 25.8535L21.2825 25.864C21.3653 25.864 21.4465 25.8338 21.5064 25.7778C21.5663 25.7218 21.5986 25.6459 21.5986 25.5685L21.5875 25.4912L21.5874 25.4909C21.5727 25.4415 21.5452 25.3974 21.5066 25.3611L21.5064 25.3609C21.469 25.3261 21.4231 25.3022 21.3727 25.2881L21.3732 25.2871L21.2743 25.2491L21.2682 25.2472L21.1973 25.2383L21.1263 25.2472L21.1258 25.2473C21.081 25.259 21.0408 25.281 21.0079 25.3116L21.0076 25.3118C20.9748 25.3426 20.9514 25.3802 20.9389 25.4221L20.9388 25.4225L20.9293 25.4888L20.9388 25.5551L20.941 25.5607Z" fill="#ECD0B2"/>
<path d="M22.578 24.6916C22.6337 24.692 22.6821 24.6698 22.7121 24.6364C22.7424 24.6032 22.7561 24.5615 22.7562 24.5206C22.7562 24.4797 22.7424 24.438 22.7121 24.4048C22.6821 24.3714 22.6337 24.3494 22.578 24.3497C22.5222 24.3493 22.4738 24.3715 22.4438 24.4049C22.4135 24.4381 22.3997 24.4798 22.3997 24.5207C22.3997 24.5616 22.4135 24.6033 22.4438 24.6365C22.4738 24.6699 22.5222 24.692 22.578 24.6916Z" fill="#ECD0B2"/>
<path d="M24.9079 26.59C25.0063 26.5904 25.0867 26.5528 25.138 26.4962C25.1896 26.4397 25.214 26.3671 25.214 26.2952C25.214 26.2233 25.1896 26.1508 25.138 26.0943C25.0867 26.0378 25.0063 26.0002 24.9079 26.0006C24.8096 26.0002 24.7292 26.0379 24.6778 26.0945C24.6262 26.1509 24.6018 26.2236 24.6017 26.2955C24.6018 26.3673 24.6261 26.4399 24.6777 26.4963C24.7291 26.5528 24.8095 26.5905 24.9079 26.59Z" fill="#ECD0B2"/>
<defs>
<linearGradient id="paint0_linear_2514_5860" x1="17.7861" y1="10.7561" x2="33.0871" y2="10.7561" gradientUnits="userSpaceOnUse">
<stop stop-color="#A3849F"/>
<stop offset="1" stop-color="#9A95A5"/>
</linearGradient>
<linearGradient id="paint1_linear_2514_5860" x1="53.2074" y1="71.4264" x2="45.1031" y2="-1.24541" gradientUnits="userSpaceOnUse">
<stop stop-color="#A3849F"/>
<stop offset="1" stop-color="#9A95A5"/>
</linearGradient>
<linearGradient id="paint2_linear_2514_5860" x1="14.1211" y1="75.7851" x2="6.01679" y2="3.11353" gradientUnits="userSpaceOnUse">
<stop stop-color="#A3849F"/>
<stop offset="1" stop-color="#9A95A5"/>
</linearGradient>
<linearGradient id="paint3_linear_2514_5860" x1="25.6692" y1="74.4973" x2="17.565" y2="1.82577" gradientUnits="userSpaceOnUse">
<stop stop-color="#A3849F"/>
<stop offset="1" stop-color="#9A95A5"/>
</linearGradient>
<linearGradient id="paint4_linear_2514_5860" x1="39.1443" y1="72.9945" x2="31.04" y2="0.322907" gradientUnits="userSpaceOnUse">
<stop stop-color="#A3849F"/>
<stop offset="1" stop-color="#9A95A5"/>
</linearGradient>
<linearGradient id="paint5_linear_2514_5860" x1="57.0788" y1="70.9946" x2="48.9745" y2="-1.67707" gradientUnits="userSpaceOnUse">
<stop stop-color="#A3849F"/>
<stop offset="1" stop-color="#9A95A5"/>
</linearGradient>
<linearGradient id="paint6_linear_2514_5860" x1="22.5106" y1="60.8218" x2="22.5106" y2="50.697" gradientUnits="userSpaceOnUse">
<stop stop-color="#A3849F"/>
<stop offset="1" stop-color="#9A95A5"/>
</linearGradient>
<linearGradient id="paint7_linear_2514_5860" x1="41.4888" y1="60.8218" x2="41.4888" y2="50.697" gradientUnits="userSpaceOnUse">
<stop stop-color="#A3849F"/>
<stop offset="1" stop-color="#9A95A5"/>
</linearGradient>
<linearGradient id="paint8_linear_2514_5860" x1="17.7766" y1="6.4768" x2="27.2446" y2="6.4768" gradientUnits="userSpaceOnUse">
<stop stop-color="#A3849F"/>
<stop offset="1" stop-color="#9A95A5"/>
</linearGradient>
<linearGradient id="paint9_linear_2514_5860" x1="17.7993" y1="-2.58564" x2="20.9806" y2="6.78201" gradientUnits="userSpaceOnUse">
<stop stop-color="#95A8CF"/>
<stop offset="1"/>
</linearGradient>
<linearGradient id="paint10_linear_2514_5860" x1="36.7632" y1="6.4768" x2="46.2312" y2="6.4768" gradientUnits="userSpaceOnUse">
<stop stop-color="#A3849F"/>
<stop offset="1" stop-color="#9A95A5"/>
</linearGradient>
<linearGradient id="paint11_linear_2514_5860" x1="46.2083" y1="-2.58564" x2="43.0268" y2="6.78201" gradientUnits="userSpaceOnUse">
<stop stop-color="#95A8CF"/>
<stop offset="1"/>
</linearGradient>
<linearGradient id="paint12_linear_2514_5860" x1="53.9385" y1="21.4271" x2="61.1531" y2="21.4271" gradientUnits="userSpaceOnUse">
<stop stop-color="#A3849F"/>
<stop offset="1" stop-color="#9A95A5"/>
</linearGradient>
<linearGradient id="paint13_linear_2514_5860" x1="66.2046" y1="17.3895" x2="57.9117" y2="21.602" gradientUnits="userSpaceOnUse">
<stop stop-color="#95A8CF"/>
<stop offset="1"/>
</linearGradient>
<linearGradient id="paint14_linear_2514_5860" x1="53.9385" y1="42.5509" x2="61.1531" y2="42.5509" gradientUnits="userSpaceOnUse">
<stop stop-color="#A3849F"/>
<stop offset="1" stop-color="#9A95A5"/>
</linearGradient>
<linearGradient id="paint15_linear_2514_5860" x1="66.2047" y1="46.5884" x2="57.9118" y2="42.376" gradientUnits="userSpaceOnUse">
<stop stop-color="#95A8CF"/>
<stop offset="1"/>
</linearGradient>
<linearGradient id="paint16_linear_2514_5860" x1="2.72167" y1="21.4271" x2="9.93622" y2="21.4271" gradientUnits="userSpaceOnUse">
<stop stop-color="#A3849F"/>
<stop offset="1" stop-color="#9A95A5"/>
</linearGradient>
<linearGradient id="paint17_linear_2514_5860" x1="-2.32941" y1="17.3895" x2="5.96344" y2="21.602" gradientUnits="userSpaceOnUse">
<stop stop-color="#95A8CF"/>
<stop offset="1"/>
</linearGradient>
<linearGradient id="paint18_linear_2514_5860" x1="2.72167" y1="42.5509" x2="9.93622" y2="42.5509" gradientUnits="userSpaceOnUse">
<stop stop-color="#A3849F"/>
<stop offset="1" stop-color="#9A95A5"/>
</linearGradient>
<linearGradient id="paint19_linear_2514_5860" x1="-2.32936" y1="46.5884" x2="5.96338" y2="42.3759" gradientUnits="userSpaceOnUse">
<stop stop-color="#95A8CF"/>
<stop offset="1"/>
</linearGradient>
<linearGradient id="paint20_linear_2514_5860" x1="32.3291" y1="6.49658" x2="32.3291" y2="17.7121" gradientUnits="userSpaceOnUse">
<stop stop-color="#95A8CF"/>
<stop offset="1"/>
</linearGradient>
<linearGradient id="paint21_linear_2514_5860" x1="32.0001" y1="59.2977" x2="32.0001" y2="46.8847" gradientUnits="userSpaceOnUse">
<stop stop-color="#A3849F"/>
<stop offset="1" stop-color="#9A95A5"/>
</linearGradient>
<linearGradient id="paint22_linear_2514_5860" x1="32.0001" y1="53.9112" x2="32.0001" y2="44.2539" gradientUnits="userSpaceOnUse">
<stop stop-color="white"/>
<stop offset="1" stop-color="#FFF7C4"/>
</linearGradient>
<linearGradient id="paint23_linear_2514_5860" x1="61.3369" y1="33.2423" x2="61.3369" y2="46.6074" gradientUnits="userSpaceOnUse">
<stop stop-color="#95A8CF"/>
<stop offset="1"/>
</linearGradient>
<linearGradient id="paint24_linear_2514_5860" x1="2.60874" y1="33.2458" x2="2.60874" y2="46.4757" gradientUnits="userSpaceOnUse">
<stop stop-color="#95A8CF"/>
<stop offset="1"/>
</linearGradient>
<radialGradient id="paint25_radial_2514_5860" cx="0" cy="0" r="1" gradientUnits="userSpaceOnUse" gradientTransform="translate(24.2453 61.0849) scale(5.03355 4.93038)">
<stop offset="0.0223" stop-color="#5A4153"/>
<stop offset="0.9485" stop-color="#3E2645"/>
</radialGradient>
<radialGradient id="paint26_radial_2514_5860" cx="0" cy="0" r="1" gradientUnits="userSpaceOnUse" gradientTransform="translate(39.7537 61.0704) scale(5.03725 4.93401)">
<stop offset="0.0223" stop-color="#5A4153"/>
<stop offset="0.9485" stop-color="#3E2645"/>
</radialGradient>
</defs>
</svg>
