<svg width="48" height="48" viewBox="0 0 48 48" fill="none" xmlns="http://www.w3.org/2000/svg">
<path d="M14.5605 0C10.5683 0 6.95679 0.6716 4.4272 1.70498C3.1623 2.22152 2.17298 2.83097 1.54495 3.43751C0.917023 4.04395 0.664959 4.59571 0.664959 5.12306C0.664959 5.65051 0.917023 6.20228 1.54505 6.80871C2.17298 7.41515 3.1623 8.0246 4.4272 8.54124C6.95679 9.57452 10.5683 10.2461 14.5605 10.2461C14.5774 10.2461 14.5938 10.2455 14.6107 10.2455L10.5587 21.5224L19.7201 9.85461C21.6221 9.55633 23.3187 9.10298 24.6938 8.54124C25.9588 8.0246 26.9482 7.41515 27.5762 6.80871C28.2043 6.20217 28.4562 5.65051 28.4562 5.12306C28.4562 4.59571 28.2043 4.04395 27.5761 3.43741C26.9482 2.83097 25.9587 2.22162 24.6939 1.70488C22.1643 0.6716 18.5528 0 14.5605 0ZM33.6809 9.85419C29.6886 9.85419 26.0772 10.5258 23.5475 11.5591C22.2827 12.0757 21.2934 12.6852 20.6653 13.2916C20.0374 13.898 19.7853 14.4498 19.7853 14.9773C19.7853 15.5046 20.0374 16.0566 20.6654 16.663C21.2934 17.2695 22.2827 17.8787 23.5475 18.3953C23.8706 18.5273 24.2119 18.6532 24.5689 18.7727L33.1998 29.7648L29.642 19.8629C30.9215 20.0157 32.2767 20.1003 33.6809 20.1003C37.6732 20.1003 41.2846 19.4287 43.8143 18.3953C45.0791 17.8788 46.0686 17.2695 46.6966 16.663C47.3245 16.0566 47.5766 15.5046 47.5766 14.9773C47.5766 14.4498 47.3245 13.898 46.6965 13.2916C46.0686 12.6852 45.0791 12.0757 43.8143 11.5591C41.2846 10.5258 37.6732 9.85419 33.6809 9.85419ZM7.35522 23.2645C4.71599 23.2645 2.46582 25.7495 2.46582 28.9807C2.46582 32.2119 4.71599 34.6969 7.35522 34.6969C9.99446 34.6969 12.2446 32.2119 12.2446 28.9807C12.2446 25.7495 9.99446 23.2645 7.35522 23.2645ZM40.6448 23.2645C38.0055 23.2645 35.7554 25.7495 35.7554 28.9807C35.7554 32.2119 38.0055 34.6969 40.6448 34.6969C43.284 34.6969 45.5342 32.2119 45.5342 28.9807C45.5342 25.7495 43.284 23.2645 40.6448 23.2645ZM3.41936 35.1488C2.68241 36.0136 2.06385 37.1503 1.57408 38.455C0.499447 41.3177 0.0726128 44.9232 0 48H14.7104C14.6378 44.9232 14.2109 41.3177 13.1365 38.455C12.6466 37.1503 12.028 36.0137 11.2911 35.1488C10.1896 36.0376 8.83609 36.5676 7.35522 36.5676C5.87436 36.5676 4.52083 36.0376 3.41936 35.1488ZM36.7089 35.1488C35.972 36.0136 35.3534 37.1503 34.8636 38.455C33.789 41.3177 33.3622 44.9232 33.2896 48H48C47.9274 44.9232 47.5004 41.3177 46.426 38.455C45.9362 37.1503 45.3176 36.0137 44.5806 35.1488C43.4792 36.0376 42.1256 36.5676 40.6448 36.5676C39.1639 36.5676 37.8104 36.0376 36.7089 35.1488Z" fill="white"/>
</svg>
