<svg width="48" height="48" viewBox="0 0 48 48" fill="none" xmlns="http://www.w3.org/2000/svg">
<path d="M30.8484 3.60235e-05C30.7319 -0.000169021 30.6151 0.000446071 30.4991 0.0033167C29.9694 0.0166446 29.4446 0.0613444 28.9263 0.137929C24.7794 0.750295 20.9285 3.38584 17.803 6.85315C14.6775 10.3205 12.2957 14.6008 11.0688 18.2909C10.4552 20.1358 10.1341 21.834 10.1236 23.1702C10.1133 24.5065 10.4284 25.4197 10.8701 25.8614L22.1343 37.1295C22.5762 37.5714 23.4927 37.8865 24.8287 37.8759C25.996 37.8669 27.4392 37.6206 29.0158 37.1487C29.146 35.2324 29.9848 33.3917 31.3609 32.0322C32.8625 30.5487 34.938 29.6999 37.0571 29.6999C38.3299 29.6999 39.5862 30.0084 40.7125 30.5744C40.8566 30.4493 41.0004 30.3239 41.1419 30.1963C44.609 27.0707 47.2476 23.2196 47.8599 19.0726C48.4723 14.9256 47.1541 10.4021 42.3751 5.62298C38.3244 1.5717 34.4583 0.00926304 30.8484 3.60235e-05ZM11.5685 29.1711C11.6029 32.1248 10.2148 34.5226 8.28143 36.5271C5.8661 39.0312 2.65236 41.1409 0 43.6876C0.534121 45.4494 0.84957 46.3161 1.26856 46.7407C1.68786 47.1658 2.53425 47.4804 4.30249 48C6.83018 45.3515 8.85841 42.0599 11.325 39.5932C12.6193 38.2986 14.0622 37.2251 15.7942 36.6807C16.6968 36.3971 17.6716 36.273 18.716 36.3188L11.5684 29.1709L11.5685 29.1711ZM37.0571 31.545C35.4383 31.545 33.7997 32.2181 32.6585 33.3453C31.5172 34.4729 30.8414 36.0844 30.8418 37.6738C30.8424 39.2626 31.5174 40.8756 32.6585 42.0023C33.7995 43.1289 35.4388 43.7996 37.0571 43.7996C38.6754 43.7996 40.3146 43.1289 41.4558 42.0023C42.5968 40.8756 43.2718 39.2626 43.2724 37.6738C43.2728 36.0844 42.597 34.4729 41.4558 33.3453C40.3145 32.2181 38.676 31.545 37.0571 31.545Z" fill="white"/>
</svg>
