<svg width="48" height="48" viewBox="0 0 48 48" fill="none" xmlns="http://www.w3.org/2000/svg">
<path d="M38.0466 0C40.0005 0 41.7432 2.09573 41.7432 4.91087C41.7432 7.73604 40.0005 9.82173 38.0466 9.82173C36.0927 9.82173 34.35 7.73604 34.35 4.91087C34.35 2.09573 36.0927 0 38.0466 0ZM24.01 0C25.9534 0 27.7066 2.09573 27.7066 4.91087C27.7066 7.73604 25.9534 9.82173 24.01 9.82173C22.0561 9.82173 20.3028 7.73604 20.3028 4.91087C20.3028 2.09573 22.0561 0 24.01 0ZM9.96288 0C11.9168 0 13.6595 2.09573 13.6595 4.91087C13.6595 7.73604 11.9168 9.82173 9.96288 9.82173C8.00895 9.82173 6.25675 7.73604 6.25675 4.91087C6.25675 2.09573 8.00895 0 9.96288 0ZM24.01 12.164C30.7695 12.387 36.4729 12.387 43.3169 12.6324C46.5805 14.6177 48.0908 24.7897 47.9958 28.3253L46.1369 30.2995C45.3237 25.5258 44.2992 19.1572 42.5987 17.7407V27.5111L43.0318 48H40.687L38.9232 27.3996H37.0221L35.2583 48H32.903L33.3466 27.5111L32.5017 17.6403H29.4071L28.6466 27.4776L29.0902 47.9665H26.735L24.9606 27.3661H23.0595L21.2851 47.9665H18.9404L19.384 27.4776L18.613 17.6403H15.5184L14.6734 27.5111L15.117 48H12.7617L10.9979 27.3996H9.09681L7.31293 48H4.96822L5.41181 27.5111V17.7407C3.70081 19.1572 2.67632 25.5258 1.86306 30.2995L0.00419069 28.3253C-0.0908652 24.7897 1.43003 14.6177 4.68305 12.6324C11.5471 12.387 17.2505 12.387 24.01 12.164Z" fill="white"/>
</svg>
