<svg width="48" height="48" viewBox="0 0 48 48" fill="none" xmlns="http://www.w3.org/2000/svg">
<path d="M11.7603 0.000368124C11.0062 0.00474579 10.2311 0.501612 9.49898 1.45897C8.52311 2.73557 7.67466 4.82894 7.26019 7.40654C6.84571 9.98432 6.95231 12.5038 7.41448 14.4226C7.87675 16.3414 8.65103 17.6146 9.62831 18.051C10.6054 18.4871 11.6583 18.0298 12.6343 16.7532C13.6102 15.4764 14.4586 13.3831 14.8731 10.8055C15.2876 8.22769 15.181 5.70818 14.7188 3.78941C14.2566 1.87064 13.4821 0.597079 12.505 0.160995C12.2607 0.0515536 12.0117 -0.00148378 11.7603 3.15646e-05V0.000368124ZM36.2398 0.000368124C35.9884 -0.0013156 35.7392 0.0518903 35.4951 0.160995C34.5178 0.597079 33.7433 1.87081 33.2813 3.78941C32.8189 5.70835 32.7124 8.22803 33.127 10.8055C33.5415 13.3832 34.3897 15.4766 35.3657 16.7532C36.3418 18.0295 37.3946 18.4869 38.3717 18.0507C39.3488 17.6146 40.1236 16.3412 40.5857 14.4223C41.048 12.5037 41.1542 9.98398 40.7397 7.40621C40.3252 4.82877 39.4772 2.73557 38.5012 1.45881C37.7692 0.501443 36.9939 0.00440923 36.2399 3.15646e-05L36.2398 0.000368124ZM7.06406 18.9557C6.03889 19.3148 5.23924 20.0462 4.5562 21.0852C3.5577 22.6045 2.80675 24.8825 2.22919 27.7696C1.15815 33.1238 0.709114 40.4554 0 48H13.3876C13.3835 40.4401 13.3358 33.0277 12.7001 27.5799C12.3765 24.8068 11.8948 22.5646 11.2756 21.0858C10.5812 21.3117 9.86425 21.2945 9.15746 20.9788C8.34791 20.6173 7.64384 19.9053 7.06406 18.956V18.9557ZM40.936 18.9557C40.3561 19.9053 39.6523 20.6172 38.8426 20.9787C38.136 21.2942 37.419 21.3117 36.7248 21.0858C36.1057 22.5649 35.6234 24.8068 35.3001 27.5799C34.6643 33.0277 34.6165 40.4401 34.6126 48H48C47.291 40.4556 46.8419 33.1238 45.7708 27.7696C45.1935 24.8827 44.4426 22.6046 43.444 21.0852C42.7612 20.0464 41.9615 19.315 40.9361 18.956L40.936 18.9557ZM16.6238 30.6575V34.5301H18.4427V30.6575H16.6238ZM24.7073 30.6575V34.5301H26.5263V30.6575H24.7073ZM15.1228 37.5608C15.141 38.3375 15.1544 39.1253 15.1657 39.918H32.8344C32.8457 39.1253 32.8594 38.3375 32.8775 37.5608H15.1227H15.1228Z" fill="white"/>
</svg>
