<svg width="48" height="48" viewBox="0 0 48 48" fill="none" xmlns="http://www.w3.org/2000/svg">
<path d="M36.239 26.8363C41.2987 26.8363 45.413 31.5834 45.413 37.4362C45.413 43.313 41.2987 48 36.239 48C31.1792 48 27.0753 43.313 27.0753 37.4362C27.0753 31.5834 31.1792 26.8363 36.239 26.8363ZM32.5818 22.7501L35.1688 24.3365C25.0805 24.3365 24.4883 34.696 24.4883 34.696L23.1481 32.004C24.426 27.6294 28.0312 23.363 32.5818 22.7501ZM28.7273 20.3946C25.174 21.2599 22.3584 24.5769 21.1844 28.0861L22.0571 29.8287C23.5948 26.1032 26.5455 22.69 30.2338 21.32L28.7273 20.3946ZM20.1455 25.983L18.0156 21.7166L14.1299 26.8363L15.3143 20.3465L5.5013 21.344L14.5662 15.5393L7.55013 6.36955L16.1766 10.4917V0L19.7403 9.24186L26.8571 0.877316L23.0857 12.7271L48 10.8403V14.2053L23.8857 17.4261L26.587 19.0846C23.761 20.4186 21.4753 23.0626 20.1455 25.983ZM0.415584 23.1708L10.213 15.9119L0 19.0366V26.6079L9.1013 22.9905L0.415584 23.1708ZM8.52987 12.0661L0 14.3495V16.7531L10.4 13.7366L8.52987 12.0661ZM28.4675 10.3475L44.4468 8.91738L48 7.49925V4.37456L28.4675 10.3475ZM27.3662 7.01853L26.2442 9.1337L48 2.81222V1.49024L27.3662 7.01853Z" fill="white"/>
</svg>
