<svg width="48" height="48" viewBox="0 0 48 48" fill="none" xmlns="http://www.w3.org/2000/svg">
<path d="M43.159 33.3266L41.412 32.7931C39.5913 38.5983 35.2449 43.0803 29.5514 44.0407C20.9112 45.5347 12.5762 38.5129 10.8608 28.4178C9.15589 18.3227 14.702 8.85722 23.3422 7.35256C29.0252 6.36013 34.6029 9.10267 38.2232 13.9581L39.7281 12.859C35.4133 6.5202 28.4253 2.93462 21.3216 4.1725C11.0713 5.95462 4.32537 17.1382 6.36702 29.1968C8.40868 41.2661 18.4486 49.4831 28.6884 47.7757C35.7921 46.4951 41.212 40.7326 43.159 33.3266ZM36.9919 33.1986C35.0239 33.9136 33.2138 34.3618 31.8351 34.6392C31.6141 35.2155 31.351 35.7384 31.0563 36.2079C30.1618 37.6165 28.9831 38.5449 27.5624 38.641C26.4995 38.7157 25.4365 38.3208 24.4578 37.5952L23.2791 39.0465C25.1524 40.8393 27.2993 41.7997 29.4356 41.5863C31.6983 41.4796 33.6453 40.0923 35.066 37.9473C35.9079 36.6454 36.5709 35.0341 36.9919 33.1986ZM4.93576 30.9576C4.46218 31.2991 4.09384 31.6192 3.84126 31.918C3.28349 32.569 3.14668 33.2093 3.27297 33.7322C3.37821 34.2017 3.69393 34.6392 4.2938 34.9594C4.74633 35.1941 5.40934 35.3862 6.26178 35.4929C5.66192 34.0203 5.23043 32.4943 4.93576 30.9576ZM15.144 32.2809C15.5334 33.2626 15.9649 34.1483 16.3964 34.9273C19.3431 34.4898 22.6477 33.8389 26.0995 33.0065C34.2872 31.0216 41.191 28.4712 44.4218 26.4329C45.369 25.8247 46.1057 25.2484 46.4214 24.7362C46.8424 24.1813 46.9476 23.6477 46.8424 23.1782C46.6319 22.6553 46.2109 22.1431 45.4742 21.8122C44.4218 21.3641 42.317 21.1933 39.465 21.3534L39.5282 23.2315C40.7069 23.2209 41.6751 23.2849 42.317 23.445C42.5275 23.4877 42.738 23.5517 42.8432 23.605C42.8432 23.6264 42.8432 23.6371 42.738 23.6477C42.5275 23.9358 42.1066 24.2453 41.6014 24.5761C38.7389 26.3689 32.656 28.5779 25.4681 30.3173C21.7005 31.2351 18.1539 31.8967 15.144 32.2809ZM20.8691 27.0412C17.1857 25.6006 15.4387 22.1644 15.4387 22.1644C18.6485 19.8594 21.4479 19.3792 23.7737 20.2542C26.0995 21.1293 27.9518 23.3489 29.2673 26.4543C27.8781 27.0839 26.6047 27.4467 25.4365 27.5855C25.7943 26.6784 25.7838 25.4512 25.3418 24.224C24.5841 22.1857 22.8687 20.9479 21.5111 21.4601C20.1535 21.9723 19.6588 24.0532 20.4166 26.0915C20.5429 26.4329 20.6902 26.7531 20.8691 27.0412ZM32.5929 25.4298L37.1287 23.8398C36.2973 19.1337 34.2767 15.1 31.772 12.6029C29.8356 10.682 27.6045 9.65758 25.3839 9.81765C21.8163 10.0631 18.9853 13.3179 17.8487 18.1413L20.164 17.5117C21.0796 15.5162 22.4582 14.1929 24.2052 14.0755C25.6681 13.9688 27.0993 14.7371 28.3727 16.039C30.3933 18.0986 31.9825 21.5028 32.5929 25.4298ZM35.5396 5.30366C35.5396 5.30366 38.339 4.65271 35.4343 0.0746996L48 0C48 0 46.6319 4.08713 42.4223 3.27611C49.7891 4.86614 43.6852 8.07822 39.9597 4.87681C44.4218 9.90302 39.4124 9.63623 35.5396 5.30366ZM12.4709 5.30366C12.4709 5.30366 9.67156 4.65271 12.5762 0.0746996L0 0C0 0 1.38917 4.08713 5.63034 3.27611C-1.82065 4.86614 4.36746 8.07822 8.05087 4.87681C3.55711 9.90302 8.59811 9.63623 12.4709 5.30366Z" fill="white"/>
</svg>
