<svg width="48" height="48" viewBox="0 0 48 48" fill="none" xmlns="http://www.w3.org/2000/svg">
<path d="M11.818 0C11.9626 6.3458 13.4987 12.6898 15.422 17.8852C17.4423 23.3425 19.9454 27.585 21.3695 29.0646L21.6401 29.3456V32.1949H26.3599V29.3456L26.6305 29.0646C28.0546 27.5849 30.5577 23.3425 32.578 17.8852C34.5013 12.6898 36.0374 6.3458 36.182 0H11.818ZM6.6256 7.28063C4.78178 7.92559 3.31185 9.22234 2.76507 10.5179C2.45571 11.2508 2.408 11.9507 2.66369 12.6638C2.69294 12.7454 2.72731 12.828 2.76589 12.9109C3.04986 12.7276 3.34096 12.5564 3.63845 12.3979L4.2825 12.0552L4.75664 12.6229C5.28373 13.2541 5.74268 13.9417 6.13381 14.6618C6.39782 14.3356 6.66808 13.8234 6.85718 13.1654C7.31798 11.5627 7.30064 9.22628 6.6256 7.28063ZM41.3744 7.28063C40.6993 9.22618 40.682 11.5627 41.1427 13.1654C41.3319 13.8234 41.6022 14.3356 41.8662 14.6618C42.2574 13.9416 42.7163 13.2541 43.2434 12.6229L43.7175 12.0552L44.3616 12.3979C44.659 12.5564 44.9501 12.7276 45.2341 12.9109C45.2726 12.8278 45.307 12.7454 45.3363 12.6638C45.592 11.9507 45.5443 11.2508 45.2349 10.5179C44.6881 9.22234 43.2182 7.92559 41.3744 7.28063ZM3.82334 14.5021C1.74548 15.8332 0.322338 17.8575 0.0529985 19.6163C-0.0954717 20.5864 0.0622331 21.4524 0.599168 22.2329C0.769493 22.4807 0.98322 22.7227 1.24599 22.9536C1.59516 22.3893 1.98771 21.8554 2.4198 21.3569L2.9041 20.7983L3.542 21.1533C4.35361 21.6049 5.10796 22.158 5.79316 22.7793C5.893 22.392 5.95928 21.9379 5.97508 21.4343C6.04034 19.3621 5.28126 16.5799 3.82344 14.5021H3.82334ZM44.1767 14.5021C42.7186 16.5798 41.9597 19.3622 42.0249 21.4343C42.0407 21.9379 42.107 22.392 42.2068 22.7793C42.892 22.158 43.6464 21.6049 44.458 21.1533L45.0959 20.7983L45.5802 21.3569C46.0123 21.8553 46.4048 22.3892 46.754 22.9535C47.0167 22.7227 47.2304 22.4807 47.4008 22.2328C47.9378 21.4524 48.0955 20.5864 47.947 19.6163C47.6777 17.8575 46.2545 15.8332 44.1767 14.5021ZM3.31473 23.2542C1.83782 25.259 1.21172 27.669 1.57002 29.4104C1.76784 30.3714 2.21623 31.1244 2.99049 31.6575C3.49777 32.0067 4.1684 32.2651 5.03645 32.3659C5.23023 31.7124 5.47387 31.076 5.76505 30.4627L6.08569 29.7871L6.79367 29.9507C7.21384 30.0478 7.62816 30.1688 8.03458 30.3107C7.99631 29.9016 7.90027 29.4382 7.73446 28.944C7.07614 26.9829 5.40029 24.6602 3.31473 23.2542ZM44.6853 23.2542C42.5997 24.6602 40.9238 26.9829 40.2655 28.944C40.0997 29.4382 40.0037 29.9016 39.9654 30.3107C40.3727 30.1682 40.7868 30.048 41.2062 29.9507L41.9142 29.7871L42.2349 30.4627C42.5261 31.076 42.7698 31.7124 42.9636 32.3659C43.8316 32.2652 44.5022 32.0066 45.0095 31.6575C45.7838 31.1244 46.2322 30.3713 46.43 29.4104C46.7883 27.669 46.1622 25.259 44.6853 23.2542ZM7.12139 32.0378C6.1687 34.5047 6.19517 37.1389 7.04864 38.8116C7.51755 39.7304 8.18818 40.3687 9.12825 40.6838C9.5988 40.8414 10.1499 40.9172 10.7889 40.876C10.5699 39.6868 10.5046 38.4272 10.6087 37.1514L10.6705 36.3973L11.3908 36.2837C11.8484 36.2121 12.3094 36.1655 12.7717 36.1439C12.8285 36.1412 12.8853 36.1396 12.942 36.1376C11.6677 34.4558 9.46541 32.787 7.12139 32.0378ZM40.8786 32.0378C38.5346 32.787 36.3322 34.4557 35.0579 36.1376C35.1147 36.1396 35.1715 36.1412 35.2282 36.1439C35.6899 36.1658 36.1512 36.2118 36.6093 36.2837L37.3296 36.3973L37.3911 37.1514C37.4954 38.4271 37.4301 39.6868 37.2111 40.876C37.8501 40.9171 38.4013 40.8414 38.8717 40.6838C39.8118 40.3687 40.4826 39.7304 40.9514 38.8115C41.8048 37.1388 41.8313 34.5046 40.8786 32.0378ZM18.2263 34.1138C18.0269 34.9008 17.606 35.6108 17.0601 36.178C16.9464 36.2952 16.8271 36.4064 16.7026 36.5111C18.2216 36.8624 19.6432 37.4377 20.8483 38.1592C21.0929 37.5878 21.3999 37.0564 21.8136 36.6098C22.3542 36.0265 23.1289 35.6063 24 35.6063C24.8712 35.6063 25.6459 36.0265 26.1864 36.6098C26.6001 37.0565 26.9071 37.5879 27.1517 38.1591C28.364 37.4334 29.7955 36.8553 31.3247 36.5046C31.1908 36.3904 31.0627 36.269 30.9411 36.1408C30.4047 35.5722 29.9899 34.8773 29.7856 34.1138H18.2263ZM24 37.5252C23.6477 37.5252 23.4218 37.6407 23.1443 37.9404C22.8668 38.2399 22.5907 38.7421 22.372 39.358C21.9343 40.59 21.7211 42.2364 21.6377 43.4566C21.5279 45.0602 21.9455 47.0138 22.8982 47.7272C23.3839 48.0909 24.6161 48.0909 25.1018 47.7272C26.0545 47.0138 26.4721 45.0602 26.3623 43.4566C26.2789 42.2364 26.0657 40.59 25.628 39.358C25.4093 38.7422 25.1332 38.2399 24.8557 37.9404C24.5782 37.6408 24.3523 37.5252 24 37.5252ZM13.3782 38.0559C13.2023 38.0551 13.0269 38.0583 12.8521 38.0655C12.708 38.0714 12.5679 38.0955 12.4249 38.1071C12.382 41.0726 13.432 43.8151 14.9894 45.2117C15.8373 45.9723 16.7938 46.3601 17.8983 46.2945C18.5044 46.2585 19.1699 46.0781 19.8861 45.7061C19.7558 44.8889 19.7448 44.0622 19.7955 43.3203C19.8604 42.3726 19.9856 41.1923 20.2551 40.0287C18.4944 38.8895 15.902 38.0677 13.3782 38.0558V38.0559ZM34.6218 38.0559C32.098 38.0677 29.5056 38.8896 27.7449 40.0287C28.0144 41.1923 28.1396 42.3726 28.2045 43.3203C28.2552 44.0621 28.2442 44.8889 28.1139 45.7062C28.83 46.0782 29.4955 46.2585 30.1018 46.2945C31.2062 46.3601 32.1627 45.9723 33.0107 45.2118C34.568 43.8151 35.618 41.0726 35.5751 38.1071C35.4322 38.0955 35.2919 38.0714 35.1479 38.0655C34.9726 38.0583 34.7972 38.0551 34.6218 38.0559Z" fill="white"/>
</svg>
