<svg width="48" height="48" viewBox="0 0 48 48" fill="none" xmlns="http://www.w3.org/2000/svg">
<path d="M5.06722 0L0 2.52987C1.63471 7.42529 3.60818 13.3159 5.59853 18.6818C7.68699 24.3122 9.81223 29.3426 11.3686 31.6737L11.4989 31.8689L13.1144 48H22.6806C20.958 47.4401 19.7025 45.8178 19.7025 43.9182C19.7025 43.4084 19.7932 42.9186 19.9588 42.4638C19.7882 42.1358 19.6213 41.7896 19.4545 41.4263C18.6534 39.6832 17.9364 37.5259 17.3246 35.2681C16.2565 31.327 15.5113 27.1325 15.3388 24.3284C14.3954 22.7801 13.5102 21.0453 12.661 19.1974C9.84106 13.0605 7.42966 5.68666 5.06722 0ZM42.9328 0C40.5702 5.68676 38.1589 13.0605 35.3389 19.1974C34.4899 21.0453 33.6046 22.7801 32.6612 24.3284C32.4888 27.1325 31.7435 31.3271 30.6755 35.2682C30.0636 37.5259 29.3466 39.6832 28.5457 41.4264C28.3787 41.7896 28.2118 42.1358 28.0412 42.4638C28.211 42.93 28.2977 43.4222 28.2974 43.9182C28.2974 45.8178 27.042 47.4401 25.3194 48H34.8857L36.5012 31.8689L36.6316 31.6737C38.1879 29.3427 40.3131 24.3122 42.4016 18.6818C44.3918 13.3159 46.3653 7.42529 48 2.52987L42.9328 0ZM24 8.01945C22.0413 8.01945 20.224 9.12143 18.8384 11.0583C17.4529 12.9951 16.5581 15.7445 16.5581 18.7995C16.5581 21.8546 17.4529 24.6039 18.8384 26.5408C20.224 28.4777 22.0413 29.5796 24 29.5796C25.9587 29.5796 27.776 28.4777 29.1616 26.5408C30.5471 24.6039 31.4419 21.8546 31.4419 18.7995C31.4419 15.7445 30.5471 12.9951 29.1616 11.0583C27.776 9.12143 25.9587 8.01945 24 8.01945ZM17.7334 28.1981C18.0677 30.2558 18.5459 32.5627 19.1458 34.7759C19.7392 36.9662 20.4372 39.0477 21.1691 40.6406C21.1756 40.6547 21.1823 40.6679 21.1888 40.6819C21.6051 40.32 22.0872 40.0413 22.6088 39.8609C21.9101 38.3173 21.2872 36.3688 20.7827 34.4797C20.3326 32.7946 19.9934 31.2881 19.8295 30.1369C19.058 29.616 18.3535 28.9589 17.7334 28.1981ZM30.2666 28.1981C29.6465 28.959 28.9419 29.616 28.1705 30.1369C28.0065 31.2881 27.6674 32.7945 27.2173 34.4797C26.7128 36.3688 26.0899 38.3173 25.3912 39.8609C25.9128 40.0413 26.3949 40.32 26.8112 40.6819C26.8177 40.6679 26.8244 40.6547 26.8309 40.6406C27.5628 39.0477 28.2608 36.9662 28.8543 34.7759C29.4541 32.5627 29.9323 30.2555 30.2666 28.1981ZM21.9469 31.1557C22.1171 32.0087 22.3386 32.9952 22.6054 33.9945C23.0036 35.4854 23.4993 37.0495 24 38.3219C24.5007 37.0495 24.9964 35.4854 25.3946 33.9945C25.6614 32.9952 25.883 32.0088 26.0531 31.1557C25.3949 31.3556 24.708 31.4635 24 31.4635C23.292 31.4635 22.6052 31.3556 21.9469 31.1557ZM24 41.511C22.6573 41.511 21.5892 42.5775 21.5892 43.9182C21.5892 45.2589 22.6573 46.3254 24 46.3254C25.3427 46.3254 26.4108 45.2589 26.4108 43.9182C26.4108 42.5775 25.3427 41.511 24 41.511Z" fill="white"/>
</svg>
