<svg width="48" height="48" viewBox="0 0 48 48" fill="none" xmlns="http://www.w3.org/2000/svg">
<path d="M5.00999 0.000545277C4.82179 -0.00344384 4.63384 0.0144698 4.45138 0.0537857C1.98247 0.591504 0.455452 2.16194 0.0996344 4.00328C-0.256062 5.84463 0.360864 7.92182 1.62701 9.94996C4.12062 13.9441 9.24967 17.8267 15.8274 18.7229C15.1514 18.0362 14.496 17.2671 13.8665 16.4364C9.16629 15.1519 5.42942 12.1093 3.54382 9.08912C2.43456 7.31237 1.99596 5.56453 2.24008 4.30086C2.48432 3.03719 3.2127 2.22254 4.99071 1.83524C4.99854 1.83351 4.9989 1.83177 5.00179 1.82983C5.01444 1.82165 4.99396 1.81522 5.00179 1.82983C5.00444 1.83484 5.00914 1.84107 5.023 1.852C5.0865 1.90238 5.22651 2.08091 5.28893 2.37725C5.41376 2.97036 5.23916 3.97069 4.30871 5.00147L6.03093 6.11962C7.28623 4.72883 7.67566 3.24954 7.42383 2.05403C7.29804 1.45623 7.01464 0.913092 6.50471 0.508526C6.12226 0.205128 5.57124 0.0111729 5.00999 0.000545277ZM42.99 0.000545277C42.4288 0.0111729 41.8779 0.20523 41.4953 0.508628C40.9854 0.913296 40.702 1.45633 40.576 2.05413C40.3243 3.24964 40.7138 4.72883 41.969 6.11972L43.6913 5.00157C42.7608 3.97079 42.5862 2.97046 42.7111 2.37736C42.7735 2.08101 42.9135 1.90248 42.977 1.85211C42.9858 1.84601 42.993 1.83846 42.9982 1.82993C43.006 1.81532 42.9856 1.82176 42.9982 1.82993C43.0011 1.83187 43.0015 1.83361 43.0093 1.83535C44.7873 2.22264 45.5157 3.03709 45.7599 4.30086C46.004 5.56453 45.5654 7.31237 44.4562 9.08912C42.5706 12.1093 38.8337 15.152 34.1335 16.4364C33.5042 17.2671 32.8484 18.0362 32.1726 18.7229C38.7503 17.8267 43.8794 13.9441 46.373 9.94996C47.6391 7.92182 48.2561 5.84463 47.9004 4.00328C47.5445 2.16184 46.0175 0.591504 43.5486 0.0537857C43.3662 0.0144698 43.1782 -0.00344384 42.99 0.000545277ZM9.71381 0.788728C9.97239 4.52199 11.7333 9.27756 14.1163 13.1356C15.4064 15.2245 16.8727 17.0529 18.3048 18.315C19.7369 19.5773 21.1082 20.2045 22.0721 20.2045H25.9279C26.8918 20.2045 28.2631 19.5773 29.6952 18.315C31.1273 17.0529 32.5936 15.2245 33.8837 13.1356C36.2667 9.27746 38.0275 4.5221 38.2862 0.788728H9.71381ZM21.2287 22.044V23.679H26.7714V22.044H21.2287ZM22.0052 25.5184C21.7091 28.172 20.4634 31.4324 19.0607 33.2848H28.9393C27.5367 31.4324 26.2909 28.172 25.9948 25.5184H22.0052ZM17.3729 35.1242V36.5548H30.6271V35.1242H17.3729ZM13.5171 38.3942V48H34.4829V38.3942H13.5171ZM16.2884 40.7446H31.7116V45.6497H16.2884V40.7446Z" fill="white"/>
</svg>
